/* XPM */
static char *ee4d49064ba247f1eb16e95cd08f40dc[] = {
/* columns rows colors chars-per-pixel */
"64 64 256 2 ",
"   c black",
".  c #0000A8",
"X  c #00A800",
"o  c #00A8A8",
"O  c #A80000",
"+  c #A800A8",
"@  c #A85400",
"#  c gray66",
"$  c gray33",
"%  c #5454FC",
"&  c #54FC54",
"*  c #54FCFC",
"=  c #FC5454",
"-  c #FC54FC",
";  c #FCFC54",
":  c gray99",
">  c #ECECEC",
",  c gainsboro",
"<  c #D0D0D0",
"1  c #C0C0C0",
"2  c #B4B4B4",
"3  c gray66",
"4  c #989898",
"5  c gray55",
"6  c #7C7C7C",
"7  c gray44",
"8  c #646464",
"9  c gray33",
"0  c #484848",
"q  c gray22",
"w  c #2C2C2C",
"e  c #202020",
"r  c #FC0000",
"t  c #EC0000",
"y  c #E00000",
"u  c #D40000",
"i  c #C80000",
"p  c #BC0000",
"a  c #B00000",
"s  c #A40000",
"d  c #980000",
"f  c #880000",
"g  c #7C0000",
"h  c #700000",
"j  c #640000",
"k  c #580000",
"l  c #4C0000",
"z  c #400000",
"x  c #FCD8D8",
"c  c #FCB8B8",
"v  c #FC9C9C",
"b  c #FC7C7C",
"n  c #FC5C5C",
"m  c #FC4040",
"M  c #FC2020",
"N  c #FC0000",
"B  c #FCA85C",
"V  c #FC9840",
"C  c #FC8820",
"Z  c #FC7800",
"A  c #E46C00",
"S  c #CC6000",
"D  c #B45400",
"F  c #9C4C00",
"G  c #FCFCD8",
"H  c #FCFCB8",
"J  c #FCFC9C",
"K  c #FCFC7C",
"L  c #FCF85C",
"P  c #FCF440",
"I  c #FCF420",
"U  c #FCF400",
"Y  c #E4D800",
"T  c #CCC400",
"R  c #B4AC00",
"E  c #9C9C00",
"W  c #848400",
"Q  c #706C00",
"!  c #585400",
"~  c #404000",
"^  c #D0FC5C",
"/  c #C4FC40",
"(  c #B4FC20",
")  c #A0FC00",
"_  c #90E400",
"`  c #80CC00",
"'  c #74B400",
"]  c #609C00",
"[  c #D8FCD8",
"{  c #BCFCB8",
"}  c #9CFC9C",
"|  c #80FC7C",
" . c #60FC5C",
".. c #40FC40",
"X. c #20FC20",
"o. c #00FC00",
"O. c #00FC00",
"+. c #00EC00",
"@. c #00E000",
"#. c #00D400",
"$. c #04C800",
"%. c #04BC00",
"&. c #04B000",
"*. c #04A400",
"=. c #049800",
"-. c #048800",
";. c #047C00",
":. c #047000",
">. c #046400",
",. c #045800",
"<. c #044C00",
"1. c #044000",
"2. c #D8FCFC",
"3. c #B8FCFC",
"4. c #9CFCFC",
"5. c #7CFCF8",
"6. c #5CFCFC",
"7. c #40FCFC",
"8. c #20FCFC",
"9. c #00FCFC",
"0. c #00E4E4",
"q. c #00CCCC",
"w. c #00B4B4",
"e. c #009C9C",
"r. c #008484",
"t. c #007070",
"y. c #005858",
"u. c #004040",
"i. c #5CBCFC",
"p. c #40B0FC",
"a. c #20A8FC",
"s. c #009CFC",
"d. c #008CE4",
"f. c #007CCC",
"g. c #006CB4",
"h. c #005C9C",
"j. c #D8D8FC",
"k. c #B8BCFC",
"l. c #9C9CFC",
"z. c #7C80FC",
"x. c #5C60FC",
"c. c #4040FC",
"v. c #2024FC",
"b. c #0004FC",
"n. c #0000FC",
"m. c #0000EC",
"M. c #0000E0",
"N. c #0000D4",
"B. c #0000C8",
"V. c #0000BC",
"C. c #0000B0",
"Z. c #0000A4",
"A. c #000098",
"S. c #000088",
"D. c #00007C",
"F. c #000070",
"G. c #000064",
"H. c #000058",
"J. c #00004C",
"K. c #000040",
"L. c #282828",
"P. c #FCE034",
"I. c #FCD424",
"U. c #FCCC18",
"Y. c #FCC008",
"T. c #FCB400",
"R. c #B420FC",
"E. c #A800FC",
"W. c #9800E4",
"Q. c #8000CC",
"!. c #7400B4",
"~. c #60009C",
"^. c #500084",
"/. c #440070",
"(. c #340058",
"). c #280040",
"_. c #FCD8FC",
"`. c #FCB8FC",
"'. c #FC9CFC",
"]. c #FC7CFC",
"[. c #FC5CFC",
"{. c #FC40FC",
"}. c #FC20FC",
"|. c #FC00FC",
" X c #E000E4",
".X c #C800CC",
"XX c #B400B4",
"oX c #9C009C",
"OX c #840084",
"+X c #6C0070",
"@X c #580058",
"#X c #400040",
"$X c #FCE8DC",
"%X c #FCE0D0",
"&X c #FCD8C4",
"*X c #FCD4BC",
"=X c #FCCCB0",
"-X c #FCC4A4",
";X c #FCBC9C",
":X c #FCB890",
">X c #FCB080",
",X c #FCA470",
"<X c #FC9C60",
"1X c #F0945C",
"2X c #E88C58",
"3X c #DC8854",
"4X c #D08050",
"5X c #C87C4C",
"6X c #BC7848",
"7X c #B47044",
"8X c #A86840",
"9X c #A0643C",
"0X c #9C6038",
"qX c #905C34",
"wX c #885830",
"eX c #80502C",
"rX c #744C28",
"tX c #6C4824",
"yX c #5C4020",
"uX c #543C1C",
"iX c #483818",
"pX c #403018",
"aX c #382C14",
"sX c #28200C",
"dX c #600064",
"fX c #006464",
"gX c #006060",
"hX c #00001C",
"jX c #00002C",
"kX c #302410",
"lX c #480048",
"zX c #500050",
"xX c #000034",
"cX c gray11",
"vX c #4C4C4C",
"bX c gray36",
"nX c gray25",
"mX c gray19",
"MX c #343434",
"NX c #D8F4F4",
"BX c #B8E8E8",
"VX c #9CDCDC",
"CX c #74C8C8",
"ZX c #48C0C0",
"AX c #20B4B4",
"SX c #20B0B0",
"DX c #00A4A4",
"FX c #009898",
"GX c #008C8C",
"HX c #008484",
"JX c #007C7C",
"KX c #007878",
"LX c #007474",
"PX c #007070",
"IX c #006C6C",
"UX c #980088",
/* pixels */
"8 7 7 7 7 7 7 7 7 7 7 7 7 7 8 7 7 7 7 7 7 7 7 7 7 6 7 7 7 7 6 6 6 6 7 7 7 7 7 7 7 7 7 7 7 7 7 7 7 7 7 7 7 7 7 7 7 7 7 7 7 7 7 7 ",
"5 2 2 # 2 # 4 5 2 2 2 2 2 4 6 2 1 1 1 2 2 5 1 2 2 1 1 2 5 1 < < < < 2 5 1 1 1 1 1 1 6 1 1 1 1 1 2 6 2 1 1 2 2 1 7 # 2 2 2 2 2 # ",
"5 1 2 2 2 2 # 5 2 2 2 2 2 # 5 1 1 1 1 1 # 5 1 2 2 1 1 2 5 < < < < < 1 5 1 1 1 1 1 1 6 < 1 1 1 1 2 6 1 2 1 1 1 1 8 # 2 2 2 2 2 # ",
"5 2 2 2 2 2 # 5 # # 2 2 2 # 4 1 2 1 1 2 4 6 2 2 2 1 1 2 5 < < < < < 2 6 2 1 1 1 1 1 7 1 1 1 1 1 # 6 1 2 2 2 2 2 8 # 2 2 # 4 2 # ",
"6 # # 2 2 2 # 6 5 5 # # 2 # 5 1 1 1 2 2 # 7 2 2 2 1 1 1 5 2 1 1 1 1 2 7 4 2 1 1 1 1 7 1 1 2 1 1 # 6 1 2 2 2 2 # 8 2 2 2 2 # # # ",
"7 4 # # 2 1 # 6 5 5 4 2 2 # 5 1 1 1 2 1 2 6 1 1 1 1 1 2 6 2 2 2 1 1 2 7 2 2 2 1 1 1 7 1 1 2 1 1 2 6 2 2 2 2 2 2 7 2 2 2 # 4 4 4 ",
"6 # # 2 2 1 # 5 4 5 4 2 2 # 5 1 1 1 2 1 2 5 1 1 1 1 1 2 6 2 2 1 1 1 2 5 1 1 2 2 1 1 7 1 1 1 1 2 # 6 1 1 1 1 1 1 8 # 2 4 5 5 4 4 ",
"7 # 2 2 2 2 4 5 4 4 4 # # # 5 2 2 2 2 2 2 6 1 2 2 1 1 # 6 2 1 1 1 1 2 5 < 1 1 1 1 2 8 2 1 2 2 2 2 6 1 2 1 2 2 2 8 4 # 5 5 5 5 5 ",
"8 4 # # # 4 5 6 4 5 5 5 4 5 7 5 5 4 4 4 5 7 # # 4 # 2 # 7 # # 2 2 2 # 5 2 2 2 2 # # 8 4 # 4 # # 4 7 4 4 # 4 4 # bX6 5 5 6 6 6 6 ",
"0 $ $ $ 0 0 0 $ 0 0 0 0 $ 0 nXq q 0 $ nXq nX0 0 0 $ $ bXbX$ $ $ $ 0 bX8 $ $ 0 $ $ $ 8 $ 0 0 0 0 $ bX0 0 0 $ 0 0 $ 0 0 0 0 0 0 nX",
"7 # # # 4 4 6 7 4 5 5 4 # 5 8 5 5 4 # 4 5 bX5 5 # 2 2 # 7 2 1 1 1 2 # 6 1 2 2 2 2 2 7 2 2 4 4 # # 6 # 2 # 4 4 # bX4 4 # # # 4 7 ",
"8 5 4 4 4 4 6 7 # # 4 4 2 4 7 4 5 5 5 4 4 8 5 5 4 4 2 2 6 1 1 1 1 2 # 7 2 2 1 2 4 2 8 2 2 # 2 2 # 7 # # 4 5 5 5 bX# 2 2 2 # 5 6 ",
"$ 6 5 5 4 4 5 7 4 # 4 4 4 4 6 4 5 6 6 4 4 7 5 5 6 5 4 # 6 2 # 2 2 2 2 7 4 2 2 4 5 4 8 2 # 4 2 1 2 7 4 4 4 6 6 5 bX# 2 2 # 4 5 4 ",
"bX6 5 5 4 4 5 5 5 5 5 5 5 5 5 4 6 5 # 4 4 7 5 5 6 eX9X5 7 2 2 # 4 2 2 6 # 2 2 5 5 # 7 # # 4 2 1 2 7 4 4 5 5 4 6 bX4 # # 4 4 4 4 ",
"7 5 4 4 4 5 5 5 4 6 7 tX7 7 7 # 4 4 2 4 4 7 4 4 5 6 6 5 8 # # 5 5 # 2 6 # 2 1 # 5 # 7 4 # # # 2 # 7 # # 4 # # 5 bX4 # # # # # 5 ",
"7 # # 4 5 4 5 6 4 6 eXj 6 7 $ 5 2 2 # 4 4 7 # 4 4 5 4 5 8 4 4 5 4 # # 7 2 # # 5 5 5 8 4 4 5 4 # # 8 # 2 2 2 2 # bX4 2 2 2 2 # 5 ",
"7 # 4 5 4 4 5 6 4 4 qXyX5 6 bX5 # # # 4 4 7 4 5 5 5 4 4 7 4 4 4 4 4 5 bX4 4 4 eX0X0XiX6 5 5 # # # 7 2 2 2 # # # bX5 4 # # # 4 4 ",
"8 5 6 7 6 6 7 7 5 5 8 yX6 7 bX7 6 6 5 6 7 $ 7 7 7 6 6 5 8 6 5 5 6 6 7 $ 6 6 6 eXeX8 MX8 7 4 5 5 5 7 4 # 4 6 5 5 8 5 5 5 6 5 5 6 ",
"bX$ 0 nX$ bXbX8 8 8 rXpX0 0 0 0 $ 0 $ $ 0 0 0 0 0 $ 0 8 bXbX$ $ bXbX$ $ $ 0 $ uX0 $ 0 0 nX0 bXbX$ 8 8 7 8 bX8 8 8 8 $ bX8 8 8 8 ",
"7 4 6 6 5 4 5 5 # 4 5 8X6 8 $ 7 6 7 5 5 6 8 5 5 5 7 7 5 7 4 5 5 # 4 6 7 6 6 6 7 6 # 8 6 8 7 4 # 4 7 # # # 4 # 2 7 4 # # 2 # 4 4 ",
"7 4 5 5 4 4 5 6 4 4 6 6 5 7 bX6 6 6 6 6 7 bX5 6 7 tXg 9XbX5 7 6 4 4 6 8 5 5 5 7 5 2 8 5 6 7 5 # 4 8 4 4 4 4 4 # bX4 2 2 # 4 5 4 ",
"bX4 4 4 4 4 5 6 4 5 6 7 5 7 7 5 5 5 6 7 8 0 5 7 8 $ uXg 0 7 7 6 7 6 6 8 4 5 # 5 # # bX6 6 5 4 4 5 8 4 5 4 # 4 4 bX4 # # 4 5 6 4 ",
"8 5 5 4 4 5 5 6 4 4 6 7 5 6 7 4 5 5 5 5 6 $ 5 7 bXbX$ bX0 7 6 7 8 bXeX$ 5 5 5 5 5 6 bX5 4 4 4 5 6 8 4 4 4 4 4 # 8 4 4 4 4 5 6 4 ",
"bX7 5 5 5 5 5 6 4 5 6 7 5 6 8 5 6 7 5 5 6 bX5 6 7 7 7 8 0 7 6 7 eXh h yX6 7 7 6 8 6 $ 5 5 4 5 5 6 $ 5 5 5 4 5 4 8 5 5 4 # # 5 6 ",
"7 5 5 5 5 5 6 6 4 5 6 5 5 6 bX6 8 eXbX6 7 8 4 5 5 6 7 8 0 8 8 7 rXh uXq 7 7 7 6 7 5 bX5 6 6 5 5 6 bX6 5 5 4 4 5 bX5 4 4 4 4 5 6 ",
"7 5 5 5 5 5 6 7 5 4 5 5 5 7 $ 5 7 tXeXbXbX7 5 4 4 6 7 $ pXtX$ bXbXbX8 0 7 7 6 6 6 5 8 5 8 6 5 5 7 bX7 5 4 4 5 5 bX5 # 4 5 5 5 4 ",
"8 5 5 6 5 5 6 bX7 5 5 7 7 bX0 7 6 $ 8 8 bXbX5 5 5 6 7 0 k j $ bXbX7 6 bX7 6 6 7 8 6 bX7 8 6 5 7 bX$ 8 7 5 5 5 5 bX5 4 4 5 5 5 6 ",
"0 0 0 0 0 $ $ 0 nX0 0 nXnXq w MXnXpXnXnXnX0 nXnX0 nXMXsXz z MXnXnXnX0 nXnXnXnXnXnX0 nXMXnX0 0 nXq nXnXnX0 0 0 $ $ bX$ $ 0 $ $ $ ",
"7 6 6 6 5 5 5 6 5 4 5 6 6 7 $ 7 6 7 6 7 8 0 bX7 6 8 uXl z uXbX7 7 7 6 bX6 6 7 7 7 7 nX0 7 7 6 7 8 $ 6 5 6 5 4 4 8 4 4 4 5 5 4 4 ",
"8 6 5 5 5 4 5 7 5 4 5 6 5 6 $ 7 5 7 6 8 $ q uXyXbXrXj k pXrX8 7 6 7 7 $ 6 5 6 6 7 8 MX8 7 7 6 6 7 $ 5 5 5 5 4 4 bX4 4 4 5 5 5 5 ",
"7 5 5 5 5 4 5 8 5 5 6 7 5 7 $ 7 6 7 7 8 $ MXk k k k k k k rX7 7 7 7 8 $ 8 7 7 8 $ bXq 8 7 7 rX7 7 8 5 5 5 5 4 5 bX5 4 4 5 5 5 5 ",
"7 4 5 8 6 4 5 7 5 5 6 7 7 bX$ 7 6 5 5 6 8 nXtXk k k k uXMXbX8 tXtX8 bXq bX$ 8 0 0 0 q bX8 8 k 7 6 8 6 5 5 4 4 5 $ 5 4 5 5 5 5 5 ",
"7 5 6 8 7 5 6 7 5 5 6 eXbX$ $ 7 6 5 5 5 7 0 tXuXuXk k yXuX0 $ yXh rXbX0 $ 0 0 tX0 bXq bX7 6 wX5 5 $ 6 5 5 5 6 6 bX5 4 5 5 4 5 5 ",
"8 5 5 qXrXtX7 8 8 7 6 uXyXbXbX7 6 8 8 7 8 0 tXrXrXtXyX8 iXuX0 $ bX0 0 0 bX$ $ $ $ 8 0 bX7 7 wX5 5 bX5 5 5 5 5 5 bX5 5 5 5 5 6 5 ",
"bX6 5 5 6 qXbXbX7 7 8 j l yX8 7 7 8 8 7 $ 0 tXrXrXrXyX8 nXuX0 0 bX$ $ $ 8 8 8 bXbX8 0 7 8 8 7 6 5 bX5 5 5 6 5 5 $ 5 6 5 5 5 5 5 ",
"7 5 5 5 6 7 7 $ 7 8 yXl z pX0 8 8 7 8 6 8 nXyX0 0 0 0 bXnX$ 0 nXbX$ $ $ 8 bX8 bX0 bX0 8 8 7 6 6 7 bX5 8 $ 7 7 7 0 6 6 5 5 6 7 5 ",
"0 bXbXbX$ 0 0 0 0 q kXz z z nX0 0 0 0 0 nXe kXMXw w MXnXnXw MXMXnXq nXnXMXMXnXq w q q nX0 $ 0 0 0 0 0 nXq 0 0 0 0 0 0 0 $ 0 nX0 ",
"8 5 6 5 5 7 7 8 bX$ uXl l l 0 7 bXbXbX8 8 nXyX$ 0 pX0 bX0 q 0 $ $ $ bX0 0 0 bX8 $ $ 0 8 7 7 8 7 8 bX7 8 8 bX$ bX$ 8 8 7 6 6 $ 7 ",
"8 6 6 5 6 6 7 8 7 $ k l z l kXbXbXbX8 bXbX$ bX8 $ k nXbXnXyXyX$ bXbX0 0 $ bX8 7 bX0 0 7 7 7 8 8 7 $ 8 8 0 0 $ $ 0 bX8 6 6 5 7 7 ",
"8 6 7 6 5 7 8 $ 7 $ uXeXl l kXbXeX$ 7 bX0 0 bX8 $ 0 $ $ q 0 0 0 $ bX0 q 0 $ bXbX$ 0 0 bXbX7 7 bXbX0 bX8 7 bX$ bX0 6 7 8 7 6 6 8 ",
"bX6 7 7 6 8 $ $ 7 $ yXyXz z kX0 7 bXbXbX0 nX$ $ $ 0 0 nXnX$ 0 q 0 $ nXq nX0 bX$ nXyX0 $ $ 8 bX$ $ nX8 7 7 8 8 8 0 5 6 bX7 6 6 7 ",
"8 6 7 7 6 8 0 0 8 bX0 nXk k pX$ 8 $ $ $ 0 nXnXnX0 0 0 0 q nXMXMX0 0 0 nX$ 0 nXpXk iXnXbXbXbX$ bXbX0 8 7 7 bX$ bX0 6 6 7 8 8 6 7 ",
"8 7 7 6 7 8 bX0 8 8 0 0 pXyXyX8 $ 0 0 0 0 MX0 0 q 0 $ 0 q q cXMX0 0 q MXyXk l k k iXMXbX8 8 bX8 bX0 bXbX7 7 8 bXnX7 6 6 7 8 8 8 ",
"bX7 7 6 7 bX$ 0 bX8 0 $ kXk uX$ bX0 q nX$ q bX0 nXnXnXpXw q MXe nX0 MXz k l k k k k aX8 7 7 bX8 bX0 bXbX7 6 6 8 0 8 6 6 7 bXbXbX",
"0 7 7 6 7 bX8 0 $ bXyX8 iXk 0 8 bX0 nXnX0 MXq pX0 0 MXaXq 0 0 cXq 0 MXkXk k k k k k pX8 7 8 bX8 8 0 8 7 8 7 7 bX0 8 7 7 7 bXbX$ ",
"nXnX0 $ nXMX0 nX0 $ k uXz z MX0 nXq nXMXe cXe sXw e cXkXMXq e cXcXcXcXw z z z z z z kX0 $ q q nX0 q 0 0 0 $ 0 0 nX0 $ $ $ 0 0 0 ",
"$ $ bX8 bXyXbX0 7 7 h yXk l yX7 0 0 bX$ 0 MXnXiXq w w uXnXnXnXnXMXMX0 q k l l l l l uXbX8 bXbX8 8 0 bX6 7 6 6 7 bX8 7 6 7 bX8 8 ",
"0 bXbXbXbXyX0 0 bXbXuX$ yXk uX$ nX0 0 $ $ nXnXpXe cXe q q 0 0 nXe e nXw pXk k k k k l nXbX0 $ nXbX0 8 7 7 7 8 $ 0 bX8 8 bXbXbX8 ",
"nXbX$ $ bXiX0 $ bXbX$ 0 pXk iXbX0 $ 0 $ $ 0 $ MXw MXnXq MXnX0 nXw MXw cXpXk l l k k l pX0 nXbXbXbX$ 8 bX8 8 bXbXnX$ $ 0 $ $ bX8 ",
"nXbXbXbXbX0 0 $ 8 bXbX0 nXpXMX0 $ 0 nX0 0 nX0 MXMXq MXnXw q nXnXq q w cXpXk pXaXl k sXpXq MX$ $ $ q 0 0 bXbXbXbXnX0 $ bXbXbXbXbX",
"MXbXbXbXbX$ 0 $ 8 bX$ 0 nXpXcX0 $ nXq nXnXMX0 nXw q MXq cXw MXnX0 q q e pXk k w pXpXMX0 q nX$ $ 0 e nX$ bX8 bXbXnX0 0 8 $ bX$ $ ",
"0 8 bXbXbXnX0 0 $ bXbX8 $ w w 0 0 q 0 nXq w $ nXq nXw w cXw q nX0 0 nXMXpXk k MXpXpXnXbX0 0 $ bX$ MXnX$ 8 7 bXbXnX0 0 $ 0 0 0 $ ",
"0 bXbXbXbXuX$ 0 0 bXbXbX0 kXaX0 0 0 0 nXMXe 0 MXnXnXMXMXw q q q nXnXnXMXpXk l pXpXMXq $ nXnX0 0 $ q 0 8 7 8 bXbXnXq nX$ 0 bXbX$ ",
"0 $ 0 bX0 l $ 0 bX$ $ $ 0 pXpX$ bX0 $ nXMXw nXcXq 0 nXnXnXnXnX0 0 q q w l k w nXnXnXw nX0 0 0 0 0 q $ 8 8 $ bX8 0 0 0 $ $ bXbX$ ",
"q q q nXq sXMXq nXMXMXq q w aXnXnXMXq MXw e cXcXcXw w w w w MXq MXw MXkXz z e w w aXcXw MXMXMXw w w q nXq MXnXnXnXq MXq q q nXnX",
"$ 0 0 bX0 pXnX0 nXMXMXw nX0 nX$ $ $ 0 0 0 nXe MXq MXnXnXw MXnX$ 0 nXnX0 MXpXnX0 nXz w nXnX0 0 $ 0 0 $ bX0 0 $ 8 0 $ 0 $ 0 0 $ $ ",
"nXbXbXbX0 pXMXq nXq q MXMXq q $ 0 $ 0 $ 0 e MX0 q q 0 nXe MX0 bX$ 0 0 nXq aXnX$ $ l kXnX0 $ $ $ nXq bXbX0 0 bX8 0 0 nX0 MXq 0 nX",
"MXbXbX0 nXMXnXMXq nX0 0 q cXw q nX0 bX$ nXe q nXw MXnXq MXnX0 0 0 0 nXq w kX0 $ $ MXpX0 0 0 0 0 q MX0 0 $ bXbXbXq 0 0 $ aXMXq nX",
"nXbXbX0 q q 0 nXnX0 bXbX$ w cXw q 0 0 0 nXw nX$ nX0 0 q MX0 0 nXq 0 nXq q aX0 0 0 nXMX0 0 0 0 0 nXMX0 $ bXbXbX$ MX0 bXbX0 bXbXnX",
"bX7 bX0 q q 0 nX0 bXbXbXbXnXe w cXq 0 0 nXMX0 bXbXbXnXMXw 0 nX0 nX0 nXq nXuX0 0 0 q MX0 0 0 0 nXnXMXnX$ $ bXbXbX0 $ bX8 bXbXbX$ ",
"bX8 bXbX0 nX0 nX0 0 $ bXbX0 w q w nX0 0 nXq $ $ $ $ 0 q q 0 nX0 0 nXq MXnXuX0 0 nXMXw 0 0 $ $ nXq w nX0 0 0 $ bX$ bX8 8 bXbX$ bX",
"bXbXbX7 $ $ 0 0 0 0 bXbXbX0 nX0 0 0 0 0 0 nXbX$ 0 0 0 0 q 0 $ $ 0 nXnXMXq pXnXMXnXq MX0 0 0 0 0 q MX0 0 0 0 $ bX0 0 $ bXbXbXbXbX",
"$ bXbXbXbX$ 0 0 bX0 bX$ 0 nXq 0 0 0 0 0 $ 0 0 0 0 0 $ 0 nX0 bX$ 0 0 nXq 0 0 0 0 $ 0 nX$ $ 0 0 0 q q $ 0 0 bX8 bX0 $ bX8 8 8 bXbX",
"nX$ $ $ $ 0 0 0 0 nXnXq nXnXq 0 0 0 nXnX0 q nXnXnX0 0 0 q nX0 0 0 q q q 0 $ 0 $ bX0 nX0 nXnXnXnXq MXnX0 0 $ $ $ nX$ $ bX$ $ $ $ "
};
