/* XPM */
static char *_550224666813[] = {
/* columns rows colors chars-per-pixel */
"64 64 256 2 ",
"   c black",
".  c #0000A8",
"X  c #00A800",
"o  c #00A8A8",
"O  c #A80000",
"+  c #A800A8",
"@  c #A85400",
"#  c gray66",
"$  c gray33",
"%  c #5454FC",
"&  c #54FC54",
"*  c #54FCFC",
"=  c #FC5454",
"-  c #FC54FC",
";  c #FCFC54",
":  c gray99",
">  c #ECECEC",
",  c gainsboro",
"<  c #D0D0D0",
"1  c #C0C0C0",
"2  c #B4B4B4",
"3  c gray66",
"4  c #989898",
"5  c gray55",
"6  c #7C7C7C",
"7  c gray44",
"8  c #646464",
"9  c gray33",
"0  c #484848",
"q  c gray22",
"w  c #2C2C2C",
"e  c #202020",
"r  c #FC0000",
"t  c #EC0000",
"y  c #E00000",
"u  c #D40000",
"i  c #C80000",
"p  c #BC0000",
"a  c #B00000",
"s  c #A40000",
"d  c #980000",
"f  c #880000",
"g  c #7C0000",
"h  c #700000",
"j  c #640000",
"k  c #580000",
"l  c #4C0000",
"z  c #400000",
"x  c #FCD8D8",
"c  c #FCB8B8",
"v  c #FC9C9C",
"b  c #FC7C7C",
"n  c #FC5C5C",
"m  c #FC4040",
"M  c #FC2020",
"N  c #FC0000",
"B  c #FCA85C",
"V  c #FC9840",
"C  c #FC8820",
"Z  c #FC7800",
"A  c #E46C00",
"S  c #CC6000",
"D  c #B45400",
"F  c #9C4C00",
"G  c #FCFCD8",
"H  c #FCFCB8",
"J  c #FCFC9C",
"K  c #FCFC7C",
"L  c #FCF85C",
"P  c #FCF440",
"I  c #FCF420",
"U  c #FCF400",
"Y  c #E4D800",
"T  c #CCC400",
"R  c #B4AC00",
"E  c #9C9C00",
"W  c #848400",
"Q  c #706C00",
"!  c #585400",
"~  c #404000",
"^  c #D0FC5C",
"/  c #C4FC40",
"(  c #B4FC20",
")  c #A0FC00",
"_  c #90E400",
"`  c #80CC00",
"'  c #74B400",
"]  c #609C00",
"[  c #D8FCD8",
"{  c #BCFCB8",
"}  c #9CFC9C",
"|  c #80FC7C",
" . c #60FC5C",
".. c #40FC40",
"X. c #20FC20",
"o. c #00FC00",
"O. c #00FC00",
"+. c #00EC00",
"@. c #00E000",
"#. c #00D400",
"$. c #04C800",
"%. c #04BC00",
"&. c #04B000",
"*. c #04A400",
"=. c #049800",
"-. c #048800",
";. c #047C00",
":. c #047000",
">. c #046400",
",. c #045800",
"<. c #044C00",
"1. c #044000",
"2. c #D8FCFC",
"3. c #B8FCFC",
"4. c #9CFCFC",
"5. c #7CFCF8",
"6. c #5CFCFC",
"7. c #40FCFC",
"8. c #20FCFC",
"9. c #00FCFC",
"0. c #00E4E4",
"q. c #00CCCC",
"w. c #00B4B4",
"e. c #009C9C",
"r. c #008484",
"t. c #007070",
"y. c #005858",
"u. c #004040",
"i. c #5CBCFC",
"p. c #40B0FC",
"a. c #20A8FC",
"s. c #009CFC",
"d. c #008CE4",
"f. c #007CCC",
"g. c #006CB4",
"h. c #005C9C",
"j. c #D8D8FC",
"k. c #B8BCFC",
"l. c #9C9CFC",
"z. c #7C80FC",
"x. c #5C60FC",
"c. c #4040FC",
"v. c #2024FC",
"b. c #0004FC",
"n. c #0000FC",
"m. c #0000EC",
"M. c #0000E0",
"N. c #0000D4",
"B. c #0000C8",
"V. c #0000BC",
"C. c #0000B0",
"Z. c #0000A4",
"A. c #000098",
"S. c #000088",
"D. c #00007C",
"F. c #000070",
"G. c #000064",
"H. c #000058",
"J. c #00004C",
"K. c #000040",
"L. c #282828",
"P. c #FCE034",
"I. c #FCD424",
"U. c #FCCC18",
"Y. c #FCC008",
"T. c #FCB400",
"R. c #B420FC",
"E. c #A800FC",
"W. c #9800E4",
"Q. c #8000CC",
"!. c #7400B4",
"~. c #60009C",
"^. c #500084",
"/. c #440070",
"(. c #340058",
"). c #280040",
"_. c #FCD8FC",
"`. c #FCB8FC",
"'. c #FC9CFC",
"]. c #FC7CFC",
"[. c #FC5CFC",
"{. c #FC40FC",
"}. c #FC20FC",
"|. c #FC00FC",
" X c #E000E4",
".X c #C800CC",
"XX c #B400B4",
"oX c #9C009C",
"OX c #840084",
"+X c #6C0070",
"@X c #580058",
"#X c #400040",
"$X c #FCE8DC",
"%X c #FCE0D0",
"&X c #FCD8C4",
"*X c #FCD4BC",
"=X c #FCCCB0",
"-X c #FCC4A4",
";X c #FCBC9C",
":X c #FCB890",
">X c #FCB080",
",X c #FCA470",
"<X c #FC9C60",
"1X c #F0945C",
"2X c #E88C58",
"3X c #DC8854",
"4X c #D08050",
"5X c #C87C4C",
"6X c #BC7848",
"7X c #B47044",
"8X c #A86840",
"9X c #A0643C",
"0X c #9C6038",
"qX c #905C34",
"wX c #885830",
"eX c #80502C",
"rX c #744C28",
"tX c #6C4824",
"yX c #5C4020",
"uX c #543C1C",
"iX c #483818",
"pX c #403018",
"aX c #382C14",
"sX c #28200C",
"dX c #600064",
"fX c #006464",
"gX c #006060",
"hX c #00001C",
"jX c #00002C",
"kX c #302410",
"lX c #480048",
"zX c #500050",
"xX c #000034",
"cX c gray11",
"vX c #4C4C4C",
"bX c gray36",
"nX c gray25",
"mX c gray19",
"MX c #343434",
"NX c #D8F4F4",
"BX c #B8E8E8",
"VX c #9CDCDC",
"CX c #74C8C8",
"ZX c #48C0C0",
"AX c #20B4B4",
"SX c #20B0B0",
"DX c #00A4A4",
"FX c #009898",
"GX c #008C8C",
"HX c #008484",
"JX c #007C7C",
"KX c #007878",
"LX c #007474",
"PX c #007070",
"IX c #006C6C",
"UX c #980088",
/* pixels */
"7 6 6 6 6 6 6 6 8 7 6 6 6 6 7 6 6 6 6 6 6 7 6 6 6 6 6 6 6 6 6 6 6 6 6 7 6 6 6 6 6 6 6 6 6 6 6 6 6 7 6 6 6 6 7 6 8 8 6 6 6 6 6 6 ",
"6 2 # # # 2 # 5 # # 2 2 2 2 5 2 1 1 2 2 1 5 # 2 1 1 1 1 # 2 < < < < < 4 2 < 1 2 1 1 4 # 1 1 1 1 2 5 # 1 2 2 4 # 4 5 # 2 2 2 2 # ",
"6 2 2 2 2 2 # 5 2 1 1 1 1 1 5 2 1 1 1 1 1 6 2 1 1 < 1 1 4 # 1 < < < < 4 1 < < 1 < < 4 2 < 1 1 1 1 5 # 1 1 1 2 2 4 6 # 2 1 2 # # ",
"6 2 # 2 1 2 2 5 # 2 1 1 1 1 5 # 2 1 1 1 1 6 2 1 1 < < 1 4 # 1 < < < < 4 2 1 1 1 < < 4 2 1 1 1 1 1 4 # 1 1 1 1 1 4 5 2 2 # 2 2 # ",
"6 2 2 2 1 # # 6 # 2 1 1 2 2 6 # 2 1 1 1 1 6 1 < 1 1 < 1 4 # < < < < < 4 2 1 1 1 1 1 4 # 1 1 1 1 1 4 # 1 1 2 1 1 4 5 2 2 # 2 2 # ",
"6 2 2 # 2 2 2 5 # # # 1 # 2 6 # 2 1 1 1 2 $ 1 1 2 2 1 1 5 # < < < < < 4 2 1 2 1 1 1 4 # 1 1 1 1 1 4 # 1 1 2 1 1 4 5 2 # 2 2 # 4 ",
"6 # # # 2 2 2 5 # # eX# # 2 5 2 1 2 1 1 2 6 # 2 # 2 # 4 4 # < < < < < 5 # 2 1 2 2 1 4 # 1 1 1 1 2 4 # # 1 2 2 2 4 6 # # 2 2 # 4 ",
"6 # # # # 2 2 5 # # 4 5 4 # 7 # # # # # # 6 # # 4 # d 0X4 # 2 1 1 1 1 6 5 # 1 1 4 2 5 # 1 2 1 1 2 4 # 2 2 # # # 4 6 2 2 2 2 # 5 ",
"8 5 5 5 5 bX# 5 4 4 4 $ 7 6 8 4 5 4 4 4 # 6 4 6 eXtX# 2 5 4 # # # 2 # 7 5 4 # # 5 4 6 4 2 4 # # # yX6 4 4 4 4 4 5 6 # # # 4 4 6 ",
"vX$ $ $ $ vXaX7 q k $ q nXvXvX$ vXvXvX$ bXbXpXl l aX$ bX8 $ vX$ bXbXbXbX$ bXbX$ vXaXuXvX$ $ $ $ vXuXbX$ $ bX8 bXbX8 bXbXbXvXnXnX",
"7 # # # # 5 4 uX4 # 5 eX# 5 7 4 8 5 eX# # 7 4 tXd eX# 2 5 5 # # 2 1 1 5 2 2 # # 4 tXh yX4 5 8 tX7 7 4 2 2 # 2 2 5 6 # 4 # 5 6 7 ",
"8 4 4 4 tX# # h f 5 tXtX4 # uXtX5 tXeX# # 8 eXtXtX6 # 2 5 5 2 2 1 # 1 6 2 1 # 4 0Xd h g 6 tXuXf tX$ yX4 4 4 # # 6 6 # 4 4 5 5 6 ",
"8 4 4 # 7 4 # j f f tXyXtX4 7 tXeXg tX5 # pXyX8 tX7 # # 6 4 # # # # # 6 4 # tX5 eXs h g eXuXg f f j uXeX5 # # # 6 6 # 4 4 4 4 4 ",
"$ 5 4 # # 4 rXj g eXf tXf tXaXpXf g f 8XtXk g yXj uX4 eX6 4 # # # 4 4 $ 6 4 tX4 eXtXh g tXf f f f j g eX4 5 5 4 7 6 # # 4 # # 4 ",
"$ 6 5 8 7 4 5 uXyXf f d f f l j f f d yXf l g tXh yX6 # 6 4 # # # eX0XpXtX7 tXyXuXuXj f f yXf d f j h f tXbXuX6 7 6 # # # # # 5 ",
"8 6 6 8 h g uXuXf f yXg d f l h f f tXf g l g yXyXeX4 # 6 4 # # # # # 7 5 8 yXg g g j g g g g d d j h g uX7 6 5 7 6 # # # # 4 5 ",
"7 4 5 6 uXg uXk h g g h g f j g f f rXyXg l h f g 6 # 4 6 4 # # 4 4 4 7 4 6 yXuXuXyXj g f g f d d k h g uX4 4 5 6 6 4 # 4 # 4 4 ",
"7 5 5 6 uXuXuXl j j j j j g k g h h yXg j z j g uXyX5 5 7 6 5 6 uXyXrX$ 6 6 8 uXbX7 pXh g h j h f l g yXyX5 5 6 6 8 8 6 4 4 4 6 ",
"$ bX8 8 8 $ aXl l l aXl sXkXl z sXaXk z z aXl aXaXaXvXvX8 vXk k sXsXaXpXvXbXbXbXbXvXsXl l z l l l z k j pXaXvXvXvX$ 8 bX8 8 8 8 ",
"7 4 # # 4 6 7 z j h h h uXuXaXj h g f g f k uXtXyXuX$ 5 7 5 d d h f tXh tX4 # # # 4 uXh f g d f f j f d f yX# # 4 6 # # 4 4 4 4 ",
"7 # # 4 6 aXyXk h g g h j h l uXuXh g h g j uXg uXtX5 4 6 7 d d g d tXh tX5 # # 4 4 h j tXf f f d aXf d f f tX4 4 6 # # 4 4 4 4 ",
"7 4 4 4 6 $ 8 k j h h j j j sXaXuXf j k f j k h h 7 4 4 7 6 6 d tXtXyXh yX6 4 4 6 uXh j tXf g d d k pXf f d d 5 4 6 # # 4 4 # 4 ",
"8 5 4 4 5 uXyXl k h h j g j z pXuXf g j g k uXuXuX8 6 # 6 6 5 d tXd tXh yXtX5 5 bXuXuXh yXf g tXf uXpXh yX8 tX4 7 6 # # # # # 4 ",
"bX$ uX4 6 tXuXk k h h h g h sXpXyXg g f f k uXuXuXbX6 4 6 5 4 d uXf d h g yXtX5 tX5 7 pXtXf f rXuXuXpXuXuXtXrX5 6 6 # # # # 4 6 ",
"bX7 $ 5 $ uXuXaXj h g j h j aXaXuXh uXh d l pXuXuXyX5 5 6 5 5 tXf f f j g g uXtX6 # 7 uXbXuXg uXuXbXuXyXyXf 5 5 5 6 # # 4 4 4 6 ",
"bX5 7 bX8 8 j pXuXuXuXk k uXaXaXaXk aXaXh l uXg uXf 6 8 7 5 5 yXyXf f j h g h yX7 4 6 7 4 yXg uXh 8 8 6 vXf yXrX5 6 # 4 5 4 # 4 ",
"bX6 6 8 8 8 k aXpXuXuXk k k z l l z e sXk l h g j h 8 uXvX8 7 8 uXg uXj h h h uXuX6 7 6 4 8 h uXh 8 8 5 8 g g yX6 6 4 5 4 5 4 6 ",
"w vXnXnXMXq z z sXsXsXz sXz z sXz z cXcXz z MXsXz sXkXsXaXkXMXaXnXsXsXz z z sXsXaXq vXnXvXaXz nXvXnXq vXvXaXkXnX$ bXvX$ $ $ $ $ ",
"bX4 bX7 vX7 g k uXaXj h j l z l j j pXaXj j 6 uXj j k k j pXuX7 8 pXpXkXj g g uXvXbX8 7 5 tXg 6 bX8 bX6 5 6 5 4 6 6 5 4 # # 4 4 ",
"$ 4 8 7 bX6 8 k j k k j k k l k aXh vXaXh l 8 uXh g j k k k uX7 7 uX$ aXuXg f 8 bX8 $ 7 6 uXg 5 5 $ 7 5 5 5 4 # 6 6 4 # # 4 4 5 ",
"bX4 uXuXuXbXh k j j k j l k k j pXj pXpXuXl uXuXh g h k l l uXbXbXuX6 $ 7 f f 5 6 6 bX7 5 tXh 5 5 bX7 5 6 5 # 4 6 6 4 # # 4 4 5 ",
"8 4 5 5 5 uXh k j j k pXaXuXj pXuXh g uXg k uXj k h k l l j g j uXuX5 7 6 yXrX5 5 5 7 6 5 uXh 5 4 7 $ 5 5 5 tX8 yX6 6 4 4 # 4 5 ",
"8 6 yX5 bX$ j uXk j j k pXuXj uXyXf h $ j l uXj h g g g j k h k uX7 5 7 6 g rX4 7 4 6 5 6 tXg 5 5 7 6 8 5 5 yXyXuX6 6 5 5 4 4 5 ",
"8 8 tX5 uXuXk bXpX8 pXpXpXuXk uX6 g uX8 h k aXk j h h g j k h j uX6 5 8 6 h yX5 6 4 6 7 6 8 h 5 5 8 7 5 6 bXuX8 uX6 eXeX6 4 4 5 ",
"8 5 bX8 j aXaXq 7 6 pXk pXuXj 7 5 uXpXbXg j pXj uXj h j k k g j vX7 5 8 7 h 5 5 6 5 7 8 bX6 6 6 5 8 6 5 8 uXh uXuXuXg yX5 5 5 5 ",
"8 5 uXbX8 aXaXvX8 8 uXaX7 5 j 7 5 uXpXbXh k uXuXh h g uXuXuXyXuX6 7 6 7 7 uX4 6 8 5 7 8 8 6 5 5 4 7 6 5 5 uXg g h j uX5 5 5 5 5 ",
"vX$ nXbX$ sXz nXsXnXq MXnXaXl $ $ kXvXvXz l nXsXz l l q vXvXvXMXnXnXvX$ aXk bXvXvX$ $ vXvXbXvXvXvXvXvXq sXz l l z l vXbX$ $ bXvX",
"vX8 7 5 5 uXuX$ l 7 $ 7 8 aXj 8 6 8 6 6 8 5 7 pXj h k $ 6 6 bX$ 8 7 8 bXuXh 6 8 bX8 8 6 uX$ 7 6 7 aXaXz z k k pXk l bX6 7 7 6 7 ",
"vX8 uX5 6 uXpX7 pX6 5 4 7 pXuX7 6 8 5 5 7 4 6 h pXj k $ 7 6 8 $ 6 6 8 $ pXh 5 6 7 7 bX8 yXtX6 5 8 k j k j j k pXj k uX7 8 6 5 7 ",
"vX7 6 6 uXuXuX7 7 5 5 5 8 pX7 8 8 $ 7 6 $ 8 7 j uXk k $ 6 6 $ $ 6 7 8 bXj uX5 6 6 7 $ 8 uXuXyXuXg k k k l l l l k j uXvXvX8 6 6 ",
"$ 7 $ 6 7 $ uXuXuX5 7 7 8 pX$ bXbXvX7 7 k h 8 j aXj uXbX6 6 $ bX8 bXbXbXvXh 5 6 7 $ vXvX$ pXuXh j l l j j k l k k q uX6 7 8 7 7 ",
"$ 8 vX6 6 7 j h j 5 uX$ 8 aXvX$ bXvX7 7 z h 8 j k h uXbX6 7 bX8 8 $ $ bX7 6 6 6 6 6 $ 8 8 j j j k sXl j j k k k aXpXpX5 6 bX8 7 ",
"vX8 6 6 6 6 pXuXuX5 yX8 7 pXyX8 7 $ 6 6 l h 8 j j h uX$ 7 bXbX8 6 8 $ bX7 6 5 5 6 6 vXpX7 k aXj j l k j j k l aXsXpXj 7 6 6 7 8 ",
"vX8 6 6 6 6 8 8 7 5 bX6 7 vXuX7 6 $ 7 6 k uX7 j aXh uX$ bXbXbX7 6 7 $ $ 7 6 5 5 6 6 vXpXbXk k l j z aXk h j k pXkXuXk 8 6 5 7 bX",
"vX8 6 6 $ 7 vX$ 6 7 uX6 7 vXuX7 6 8 6 6 8 6 6 pXaXk uX$ bXbX7 6 6 7 $ $ 7 6 6 7 $ bXq aXbXaXaXk h l l k uXuXh bXaXpXk bX6 6 7 $ ",
"nXvXvXvXaXq z vX$ vXkX$ $ nXq $ $ $ $ bX$ $ $ kXsXl aX$ $ $ $ $ $ $ vX$ $ $ $ kXnXvXnXaXaXaXsXz sXl l q z nXaXvXsXaXl vXnXnXnXvX",
"$ 7 8 bXuX8 l 7 6 bXpX6 7 nX8 6 6 6 6 6 7 6 6 pXpXh uX8 6 6 6 6 5 6 vX8 6 6 $ uXbX7 pXuXuXuXuXk k z pX$ k bXpX7 aXvXpXbXbX8 7 8 ",
"vXbXbX$ $ $ aX7 6 8 pX6 7 nX$ 7 6 6 6 6 bX8 8 pXaXk pX$ 7 6 6 6 6 7 $ $ bX8 pXuXvXbXaXuXuXvXuXj l z pXuXl bXj 8 aXbXpX8 bX6 6 8 ",
"vXbXbXvXvXvXaX7 6 7 7 6 7 nXbX6 6 7 8 8 l bXbXpXaXk aXvX8 7 6 6 6 8 vXvX$ vXaXbXvXbXvXuXaX7 h h 8 z vX6 aX8 pX7 $ 6 pX$ bX6 7 8 ",
"vX$ $ bXbXvXl vX6 6 6 6 7 nXbX7 bX8 bX8 vX8 8 pXpXj pXvX8 7 6 6 6 8 vXvXbXvXvXbXvXbXq $ bX8 k j 8 sX8 6 pX7 pX8 bX6 pX$ 8 8 bXbX",
"vX$ bX$ bXvXl vX7 7 7 6 8 $ 8 vXvXbXbX8 vXbXbXyXuXh uX$ 7 6 7 7 6 8 vX$ 7 6 6 6 $ $ vX8 bXbXpXaXbXsXbX6 z vXpXbXbX6 k $ 8 8 $ $ ",
"vXbXbXpX$ vXaXk $ bX7 7 8 $ 8 bXbXbX8 8 $ bXbXuXpXj uXbX6 7 8 bX8 8 $ bX7 7 7 6 bXbX$ 8 8 bXpXaX$ kXbX7 k vXaX$ $ 7 aX$ 8 6 8 $ ",
"vXbXbXvXbXbXvXaXvXbXbX8 8 $ 8 8 8 7 6 7 $ $ bXuXpXj pXbX7 8 bX8 8 8 vXbX8 7 7 6 bX$ $ 7 6 7 pXaX$ pX8 bX$ $ aXbX$ bXnXbX7 6 7 $ ",
"vXbXbXbXbX$ vXbXbXbXbXvXbXvX8 8 7 6 6 7 $ $ bXvXaXk pX$ bXbX8 7 8 bXvX$ bX8 8 7 bXbX$ 7 6 6 uXaXbXnX8 uXpX$ l bX$ bXbX7 6 6 7 $ ",
"q nXnXnXnXnXw vXnXnXMXaXvXnXnXvXvX$ $ vXnXMXvXvXaXz aXnXnXnXvX$ vXnXw nXvXnXvX$ nXnXnXvX$ $ aXkXnXnXvXq MXq z vX$ $ $ $ $ $ $ vX",
"vX$ $ $ $ nXMXnXbX8 $ vX8 8 bXbXbX8 bX$ bXpX8 8 uXl z $ bX8 7 7 bX$ $ $ $ $ $ bX$ $ vXbXbX$ vXvXbXbXbXvXvXbXk 8 bXvXvXvX$ $ $ $ ",
"vX$ $ bXbX$ nXq bX6 bX7 8 8 bXbX8 7 bXbXbXsXbX6 $ l aXbXbX8 7 7 $ $ bXvXvXnX$ $ $ nXMXvXbXbXvXvX8 bXbXvXvX7 k $ bXvXvX$ bXbX$ $ ",
"nXnX$ bX$ vXnXnX$ 7 h $ bXbX$ bX8 6 7 bX$ z vX7 vXpXaX$ vX$ bX$ bXvXvXnXq q vX$ $ nXnXvX$ bXvX8 8 bX$ pX$ 7 vX7 $ vXvXvX$ bX$ nX",
"nXnX$ bX$ vXnXnX$ 8 aXj bXbX$ bXbX8 7 bX$ sXq $ vXaXaXnXq $ $ vXvXvXvXnXnXnXvX$ vXvXnXnX$ bX7 8 bXbX$ $ bX8 8 8 $ vXvXvX$ bX$ nX",
"nX$ bXbX$ vXnXnX$ bX$ aXbXbX$ $ bX$ bXbX$ sXq vXnXaXaXvXq vXvXvXvXvXvXnXnXvXvXbXvXnXnXnX$ bXbX$ bX$ $ bXbXbXbXbX$ vXvXvX$ bXbX$ ",
"nXbX8 8 bXvXvXq vX$ vXaXbXbXvXvXnXq nX$ $ MXvX$ vXaXaXnXMXvX$ vXvXvXvXnXnXvX$ vXq MXq nX$ $ nXnXnXvXvXbXbXbX$ $ vXMXvXvXbX8 8 bX",
"nXbX8 8 bXbX$ vX$ $ $ vXbX$ nXnXnXvXvX$ $ vX$ bXvXsXaX$ q $ $ bX$ vXvXnXvXvX$ vXq vXMXvX$ $ nXvXnXnXnX$ bXbX$ $ $ nX$ bXbX8 8 bX",
"nXbXbXbXbXbXbXvX$ bX$ $ $ $ q nXvX$ $ $ $ vX$ $ $ vXaX$ vX$ $ bXbX$ vXnX$ $ $ $ bX$ vXnX$ $ $ $ nXnXnXvX$ $ $ bX$ vXbXbXbXbXbXbX",
"q $ $ 8 $ vXvXvXvXvXvXnXMXnXnXnXnXvXvXvXvXnXnXnXq vXMX$ vXMXvXvXvXvXnXnXvX$ vXvXbXvXnXnXvXvXvXvXnXnXnXnXMXnXvXnXvXvXnXvX$ 8 $ $ "
};
