/* XPM */
static char *_3d1991724084089ae6c168235576774[] = {
/* columns rows colors chars-per-pixel */
"64 63 256 2 ",
"   c black",
".  c #0000A8",
"X  c #00A800",
"o  c #00A8A8",
"O  c #A80000",
"+  c #A800A8",
"@  c #A85400",
"#  c gray66",
"$  c gray33",
"%  c #5454FC",
"&  c #54FC54",
"*  c #54FCFC",
"=  c #FC5454",
"-  c #FC54FC",
";  c #FCFC54",
":  c gray99",
">  c #ECECEC",
",  c gainsboro",
"<  c #D0D0D0",
"1  c #C0C0C0",
"2  c #B4B4B4",
"3  c gray66",
"4  c #989898",
"5  c gray55",
"6  c #7C7C7C",
"7  c gray44",
"8  c #646464",
"9  c gray33",
"0  c #484848",
"q  c gray22",
"w  c #2C2C2C",
"e  c #202020",
"r  c #FC0000",
"t  c #EC0000",
"y  c #E00000",
"u  c #D40000",
"i  c #C80000",
"p  c #BC0000",
"a  c #B00000",
"s  c #A40000",
"d  c #980000",
"f  c #880000",
"g  c #7C0000",
"h  c #700000",
"j  c #640000",
"k  c #580000",
"l  c #4C0000",
"z  c #400000",
"x  c #FCD8D8",
"c  c #FCB8B8",
"v  c #FC9C9C",
"b  c #FC7C7C",
"n  c #FC5C5C",
"m  c #FC4040",
"M  c #FC2020",
"N  c #FC0000",
"B  c #FCA85C",
"V  c #FC9840",
"C  c #FC8820",
"Z  c #FC7800",
"A  c #E46C00",
"S  c #CC6000",
"D  c #B45400",
"F  c #9C4C00",
"G  c #FCFCD8",
"H  c #FCFCB8",
"J  c #FCFC9C",
"K  c #FCFC7C",
"L  c #FCF85C",
"P  c #FCF440",
"I  c #FCF420",
"U  c #FCF400",
"Y  c #E4D800",
"T  c #CCC400",
"R  c #B4AC00",
"E  c #9C9C00",
"W  c #848400",
"Q  c #706C00",
"!  c #585400",
"~  c #404000",
"^  c #D0FC5C",
"/  c #C4FC40",
"(  c #B4FC20",
")  c #A0FC00",
"_  c #90E400",
"`  c #80CC00",
"'  c #74B400",
"]  c #609C00",
"[  c #D8FCD8",
"{  c #BCFCB8",
"}  c #9CFC9C",
"|  c #80FC7C",
" . c #60FC5C",
".. c #40FC40",
"X. c #20FC20",
"o. c #00FC00",
"O. c #00FC00",
"+. c #00EC00",
"@. c #00E000",
"#. c #00D400",
"$. c #04C800",
"%. c #04BC00",
"&. c #04B000",
"*. c #04A400",
"=. c #049800",
"-. c #048800",
";. c #047C00",
":. c #047000",
">. c #046400",
",. c #045800",
"<. c #044C00",
"1. c #044000",
"2. c #D8FCFC",
"3. c #B8FCFC",
"4. c #9CFCFC",
"5. c #7CFCF8",
"6. c #5CFCFC",
"7. c #40FCFC",
"8. c #20FCFC",
"9. c #00FCFC",
"0. c #00E4E4",
"q. c #00CCCC",
"w. c #00B4B4",
"e. c #009C9C",
"r. c #008484",
"t. c #007070",
"y. c #005858",
"u. c #004040",
"i. c #5CBCFC",
"p. c #40B0FC",
"a. c #20A8FC",
"s. c #009CFC",
"d. c #008CE4",
"f. c #007CCC",
"g. c #006CB4",
"h. c #005C9C",
"j. c #D8D8FC",
"k. c #B8BCFC",
"l. c #9C9CFC",
"z. c #7C80FC",
"x. c #5C60FC",
"c. c #4040FC",
"v. c #2024FC",
"b. c #0004FC",
"n. c #0000FC",
"m. c #0000EC",
"M. c #0000E0",
"N. c #0000D4",
"B. c #0000C8",
"V. c #0000BC",
"C. c #0000B0",
"Z. c #0000A4",
"A. c #000098",
"S. c #000088",
"D. c #00007C",
"F. c #000070",
"G. c #000064",
"H. c #000058",
"J. c #00004C",
"K. c #000040",
"L. c #282828",
"P. c #FCE034",
"I. c #FCD424",
"U. c #FCCC18",
"Y. c #FCC008",
"T. c #FCB400",
"R. c #B420FC",
"E. c #A800FC",
"W. c #9800E4",
"Q. c #8000CC",
"!. c #7400B4",
"~. c #60009C",
"^. c #500084",
"/. c #440070",
"(. c #340058",
"). c #280040",
"_. c #FCD8FC",
"`. c #FCB8FC",
"'. c #FC9CFC",
"]. c #FC7CFC",
"[. c #FC5CFC",
"{. c #FC40FC",
"}. c #FC20FC",
"|. c #FC00FC",
" X c #E000E4",
".X c #C800CC",
"XX c #B400B4",
"oX c #9C009C",
"OX c #840084",
"+X c #6C0070",
"@X c #580058",
"#X c #400040",
"$X c #FCE8DC",
"%X c #FCE0D0",
"&X c #FCD8C4",
"*X c #FCD4BC",
"=X c #FCCCB0",
"-X c #FCC4A4",
";X c #FCBC9C",
":X c #FCB890",
">X c #FCB080",
",X c #FCA470",
"<X c #FC9C60",
"1X c #F0945C",
"2X c #E88C58",
"3X c #DC8854",
"4X c #D08050",
"5X c #C87C4C",
"6X c #BC7848",
"7X c #B47044",
"8X c #A86840",
"9X c #A0643C",
"0X c #9C6038",
"qX c #905C34",
"wX c #885830",
"eX c #80502C",
"rX c #744C28",
"tX c #6C4824",
"yX c #5C4020",
"uX c #543C1C",
"iX c #483818",
"pX c #403018",
"aX c #382C14",
"sX c #28200C",
"dX c #600064",
"fX c #006464",
"gX c #006060",
"hX c #00001C",
"jX c #00002C",
"kX c #302410",
"lX c #480048",
"zX c #500050",
"xX c #000034",
"cX c gray11",
"vX c #4C4C4C",
"bX c gray36",
"nX c gray25",
"mX c gray19",
"MX c #343434",
"NX c #D8F4F4",
"BX c #B8E8E8",
"VX c #9CDCDC",
"CX c #74C8C8",
"ZX c #48C0C0",
"AX c #20B4B4",
"SX c #20B0B0",
"DX c #00A4A4",
"FX c #009898",
"GX c #008C8C",
"HX c #008484",
"JX c #007C7C",
"KX c #007878",
"LX c #007474",
"PX c #007070",
"IX c #006C6C",
"UX c #980088",
/* pixels */
". . . . . . . . . . H.q $ $ $ $ 0 0 0 0 0 w A.N.N.N.N.N.N.N.N.N.N.N.N.N.N.N.N.N.. A.w q q q q q 0 $ $ $ $ $ M.M.M.M.M.M.M.M.A.  ",
"B.M.M.M.M.N.N.B.. A.H.q $ $ 0 0 F.B.b.b.B.H.A.B.b.b.b.b.b.b.b.b.b.b.b.b.b.b.b.N.A.G.w b.b.b.N.F.0 q $ $ $ $ M.b.B.. A.. A.. F.w ",
"M.A.B.A.. . A.F.H.q q $ 0 0   A.b.b.B.B.. A.H.. N.b.B.B.B.B.B.B.B.B.B.B.B.B.B.A.G.w N.b.b.b.b.N.F.0 q q $ $ $ . . A.A.A.. A.F.w ",
"M.B.A.. A.A.H.q q $ 0 A.A.A.w A.N.B.B.B.B.A.H.A.N.b.B.. . . . . . . . . . . . A.G.D.b.B.B.B.N.V.A.w A.A.q q $ G.A.A.. . A.D.F.w ",
"M.A.. A.D.H.q q $ 0 . N.b.b.B.w H.A.B.. . A.F.H.A.N.V.. . . . . . . . . . . A.G.w N.B.. . . B.H.w A.b.N.D.H.q $ F.A.A.D.. . F.w ",
"M.. A.D.J.q q $ 0 N.b.b.N.N.M.A.w H.A.. . . A.H.A.B.B.. . . . . . . . . . . A.G.D.b.. . . . H.w A.b.N.. A.D.H.q H.F.A.. . . F.w ",
"M.. A.F.q q $ 0 N.b.N.N.. . . M.A.w H.A.. . A.F.H.A.B.A.A.A.A.A.A.A.A.A.A.A.G.w N.B.. . . H.w A.b.N.. . . A.D.H.q 0 F.A.. . F.w ",
"N.. F.J.q $ 0 . b.N.B.. . . . . N.A.w H.A.A.A.F.H.H.H.H.H.H.H.H.H.H.H.H.H.H.H.w V.V.. . H.w A.b.N.. . . . . A.G.H.q 0 $ F.F.F.w ",
"B.A.F.q 0 0 $ $ D.M.. . . . . . . N.A.w H.H.H.H.H.jXjXjXjXjXjXjXjXjXjXjXhXjXjXH.H.A.V.F.w A.b.N.. . . . . . . D.H.H.q 0 $ w w w ",
"A.F.q 0 0 V.b.A.$ D.. B.. . . . . A.B.A.w H.xXxX                                xXxXH.w A.b.N.. . . . . . . D.H.w q q w 0 0 q q ",
"$ q q 0 V.b.N.b.A.w H.D.. . . . A.D.G.H.H.                                            H.H.F.N.. . . . . D.H.w q A.A.F.xXw q 0 0 ",
"$ 0 0 A.b.N.N.N.b.B.w H.G.D.A.A.D.xXxXxXxX                                          hXxXxXxXA.N.. . D.G.q w . b.N.N.V.F.xXw q $ ",
"$ $ 0 V.N.B.. . N.b.B.F.w H.G.G.H.xXxX                                              hXhXhXxXxXA.N.G.H.w F.. b.N.. . . D.xXxXw $ ",
"$ $ F.b.N.. . . . . b.b.D.w w H.xX                                                    hXhXhXhXxXH.w w . b.b.B.. . . . V.F.xXw 0 ",
"$ $ A.b.N.. . . . . . N.v.D.jX                                                            hXhXhX  w . v.M.B.. . . . . . F.xXw q ",
"$ 0 V.b.N.. . . . . . A.D.H.xX                                                  yXwX            e H.A.b.b.B.. . . . . . F.xXw q ",
"$ 0 V.N.N.. . . . . . A.H.xX            B H H U D         eXI H : B eX        D U H S       hXhXhXxXH.. b.b.B.. . . . . D.xXe w ",
"$ 0 V.A.A.D.A.A.A.A.A.D.H.            U H V Z yXpX      eXI G U F yX  eX      pXB B H B pX    hXhXhXH.F.b.N.B.D.D.H.H.H.H.H.e w ",
"$ q q w w w H.H.H.H.F.H.xX          U H V Z sXsXpX      F J J H B J H U eX    pXsXpXB H B pX  hXhXhXxXF.H.F.H.H.H.w w w w w w e ",
"0 V.b.b.V.A.D.w w w w xXxX          H V Z sXsXsXpXpX    F A : B A yXyXpXeX    eXsXpXpXI I pX    hXhXxXe xXw w w F.B.b.b.N.A.w e ",
"0 V.b.N.N.N.b.b.M.A.H.xXxX        U H V pXsXsXsXeXeX      I H A D yX          eXsXpXpXB H B aX        e xXA.N.b.b.N.B.V.V.F.w e ",
"0 V.b.B.. . . . . B.D.xX          H U Z sXsXsXsXS pXpX    I U B B B D sX    sXD sXpXtXD I H aX    jXxXH.F.B.b.B.B.. . . . H.w e ",
"0 V.b.B.. . . . . . F.xX          H B F sXsXpXpXF L yXyXF L G G J J B D sX  eXB sXtXtXD I H aX  hXjXxXH.F.B.b.B.. . . . A.H.w e ",
"0 V.b.B.. . . . . A.G.xX          H S F sXsXsXsXeXB L H : G G G G G L D yXA B sXpXtXtXD I H aX  hXjXxXH.F.B.b.B.. . . . A.H.w e ",
"0 V.b.B.. . . . . A.H.xX          H S eXsXsXsXsXsXeXB : : H H H H H L D yX  sXpXpXtXtXD I H aX  hXjXxXH.F.B.b.B.A.A.A.A.A.H.w e ",
"0 V.N.. A.A.A.A.A.A.H.xX          H S tXsXaXsXsXsXsXyXB : U L L L L U D yX  sXpXpXtXtXD I H aX  hXjXxXH.F.A.F.H.H.H.H.H.H.H.w e ",
"0 . D.H.H.H.H.H.H.H.H.xX          H S tXsXaXsXsXsXsXsXF L U L L L L B yXpXsXsXpXpXtXF D I H aX                              w e ",
"0 q q w w                         H S tXsXiXyX    sXsXF L U B B B B D wXpX      pXF F S I H aX  hXjXxXH.F.B.b.b.b.b.b.b.N.A.w e ",
"0 V.b.b.b.b.b.b.b.N.F.xX          H S tXpXyX  sXsXsXsXF U B S S S S D wXpX  sXpXsXsXF C I H aX  hXjXxXH.F.B.b.B.B.B.B.B.. F.w e ",
"0 V.b.B.B.B.B.B.B.A.H.xX          H B F pXrXsXsXsXsXsXF I B F F F D S D pX  sXpXF F S B I H aX  hXjXxXH.F.B.b.B.. . . . . H.w e ",
"0 V.b.B.. . . . . A.H.xX          U H F sXwXpXpXpX  sXF U S yXwXwXwXS B pX      F S C B I >XaX  hXjXxXH.D.B.b.B.. . . . A.H.w e ",
"0 V.b.B.. . . . . A.H.xX            H F sXwXyXiX      F B S pXyXyXeXB B pX        C B I H rXaX  hXjXxXH.A.B.b.B.. . . . A.H.w e ",
"0 V.b.B.. . . . . A.H.xX            H B yXyX8XsX      wXI S pXpXsXeXU U pX        B B I H pX  hXhXjXxXH.A.B.b.B.. . . . A.H.w e ",
"0 V.b.B.. . . . . A.H.xX            U H F sXyXsX      wXI S pXsXsXsXU L pX        B I I 6XpX  hXhXjXxXH.A.B.b.B.. A.A.A.A.H.w e ",
"0 V.b.. A.A.A.A.A.A.H.xX              U S yXyXpX      yXJ S sXsXsXsXU H pX        I I H pX    hXhXhXxXH.G.D.F.H.H.H.H.H.H.H.w e ",
"0 . D.H.H.H.H.H.H.H.H.xX              U B F pXpX      yXG S sXsXsXyXU H           I H D pX                                  w e ",
"0 q q w w                             tXU F yXyX    F H H H yXyXyXH : H H F       H D pX  hXjXjXjXjXJ.F.A.N.b.b.b.b.b.b.N.A.jXe ",
"0 V.b.b.b.b.b.b.b.N.F.xX                  F F       H yXH : : U : U U H yXU       D pX    hXjXjXjXjXJ.F.A.B.b.B.B.B.B.B.B.F.jXe ",
"0 V.b.B.B.B.B.B.B.. H.xX                          U : : m : m m m m : m : m       pX    hXhXjXjXjXxXJ.F.A.B.b.B.. . . . . H.jXe ",
"0 V.b.B.. . . . . A.H.xX                      b : H b m m m m m m m m m m m p           hXhXjXjXxXxXH.F.A.B.b.B.. . . . A.H.jXe ",
"0 V.b.B.. . . . . A.H.xX                    b : b m m s j j j j j j j m m m m p         hXhXjXjXxXxXH.F.A.B.b.B.. . . . A.H.jXe ",
"0 V.b.B.. . . . . A.H.xX                  b : b m s j j j           j j j m m m p       hXhXjXjXxXJ.H.F.A.B.b.B.. . . . A.H.jXe ",
"0 V.b.. A.A.A.A.A.A.H.xX                M c b m s : : 2     : : : : : : : 2 m m m j     hXhXjXjXxXJ.H.F.A.B.b.B.. . . . A.H.jXe ",
"0 . D.H.H.H.H.H.H.H.H.xX                v c m m j : < 0     : < < < < < < 0 p m m p sX    hXjXjXxXJ.H.F.A.B.b.B.. A.A.A.A.H.jXe ",
"0 q q w w                             M : b m y j : < 0     : < 0 0 0 0 0 0 j n m r j       hXhXhXhXxXH.G.D.F.H.H.H.H.H.H.H.jXe ",
"0 V.b.b.b.b.b.b.b.N.F.xX              M : m m d j : < 0     : < 0           j b m m d sX                                    w e ",
"0 V.b.B.B.B.B.B.B.. H.xX              n x m y j   : < 0     : < 0             b m m a sX  hXjXjXxXxXH.F.A.B.b.b.b.b.b.b.N.A.w e ",
"0 V.b.B.. . . . . A.H.xX              n x m y j   : < 2 : : : < 4 : : : : 2   v m m a sX  hXjXjXxXxXJ.F.A.B.b.B.B.B.B.B.. F.w e ",
"0 V.b.. A.A.A.A.A.A.H.xX              n c m y j   : < < < < < < < < < < < 0   v m m a sX  hXjXjXxXxXJ.F.A.B.b.B.. . . . . H.w e ",
"0 . D.H.H.H.H.H.H.H.H.xX              r v m y j   6 0 0 0 0 4 < 0 0 0 4 < 0   v m m a sX  hXjXjXxXxXJ.F.A.B.b.B.. A.A.A.A.H.w e ",
"0 q q w                               r b m y j             : < 0     : < 0   v m m a sX  hXhXhXhXhXxXH.G.D.F.H.H.H.H.H.H.H.w e ",
"0 V.b.b.b.b.b.b.b.N.F.xX              s b m m j j           : < 0     : < 0 j n m m d                                       w e ",
"0 V.b.B.B.B.B.B.B.. H.xX                M b m s yX: : : : : : < 0     : < 0 r r m M j   hXhXjXjXxXxXJ.F.A.B.b.b.b.b.b.b.N.A.w e ",
"0 V.b.B.. . . . . A.H.xX                s m m y yX: < < < < < < 0     : < 0 s m m a j   hXhXjXjXxXxXJ.F.A.B.b.B.B.B.B.B.. F.w e ",
"0 V.b.B.. . . . . A.H.xX                  s m m s 6 0 0 0 0 0 0 0     6 0 0 m m m j     hXhXjXjXxXxXJ.F.A.B.b.B.. . . . A.H.w e ",
"0 V.b.. A.A.A.A.A.A.H.xX                    m m m s j j j           j j s m m m s       hXhXjXjXxXxXJ.F.A.B.b.B.. . . . A.H.w e ",
"0 . D.H.H.H.H.H.H.H.H.xX                sXpX  m m m n n m m m m m m y c v m m s   pXsX  hXhXjXjXxXxXH.F.A.B.b.. A.A.A.A.A.H.w e ",
"0 q q w                               sXpXyXyX  m m m b b v v c c c v m m m s   yXyXpXsXhXhXhXhXhXhXxXH.G.D.F.H.H.H.H.H.H.H.w e ",
"0 N.b.b.b.b.b.b.b.N.F.xX              sXpXyXyXyX    m m m m m m m m m m m   yXyXyXyXpXsX                                    w e ",
"0 N.b.. . . . . . . H.xX      : : : : : H H H J J U yXyXyXyXyXyXyXyXyXyXyXU J J G G G G G G 2   xXxXH.F.A.N.b.b.b.b.b.b.N.A.w e ",
"0 N.b.. A.A.A.A.A.A.H.xX      : U U U U U U U U U U U U U U U U U U U U U U U U U U U U U U 5   xXxXH.F.A.N.b.B.. . A.A.A.F.w e ",
"0 . D.H.H.H.H.H.H.H.H.H.  w q 5 $ $ $ $ $ $ $ $ $ $ $ $ $ $ $ $ $ $ $ $ $ $ $ $ $ $ $ $ $ $ $ w e e xXH.G.D.F.H.H.H.H.H.H.H.w e ",
"0 0 0 0 0 0 0 0 0 0 0 0 0 q $ 8 7 7 7 7 7 7 7 7 7 7 7 7 7 7 7 7 7 7 7 7 7 7 7 7 7 7 7 7 7 7 8 q w e 0 0 0 0 0 0 0 0 0 0 0 0 0 0 "
};
