/* XPM */
static char *_971_68a680f71d0198ec85f11e02fca2645de0623c4ea6e517303c0d524580d9b470[] = {
/* columns rows colors chars-per-pixel */
"64 64 256 2 ",
"   c black",
".  c #0000A8",
"X  c #00A800",
"o  c #00A8A8",
"O  c #A80000",
"+  c #A800A8",
"@  c #A85400",
"#  c gray66",
"$  c gray33",
"%  c #5454FC",
"&  c #54FC54",
"*  c #54FCFC",
"=  c #FC5454",
"-  c #FC54FC",
";  c #FCFC54",
":  c gray99",
">  c #ECECEC",
",  c gainsboro",
"<  c #D0D0D0",
"1  c #C0C0C0",
"2  c #B4B4B4",
"3  c gray66",
"4  c #989898",
"5  c gray55",
"6  c #7C7C7C",
"7  c gray44",
"8  c #646464",
"9  c gray33",
"0  c #484848",
"q  c gray22",
"w  c #2C2C2C",
"e  c #202020",
"r  c #FC0000",
"t  c #EC0000",
"y  c #E00000",
"u  c #D40000",
"i  c #C80000",
"p  c #BC0000",
"a  c #B00000",
"s  c #A40000",
"d  c #980000",
"f  c #880000",
"g  c #7C0000",
"h  c #700000",
"j  c #640000",
"k  c #580000",
"l  c #4C0000",
"z  c #400000",
"x  c #FCD8D8",
"c  c #FCB8B8",
"v  c #FC9C9C",
"b  c #FC7C7C",
"n  c #FC5C5C",
"m  c #FC4040",
"M  c #FC2020",
"N  c #FC0000",
"B  c #FCA85C",
"V  c #FC9840",
"C  c #FC8820",
"Z  c #FC7800",
"A  c #E46C00",
"S  c #CC6000",
"D  c #B45400",
"F  c #9C4C00",
"G  c #FCFCD8",
"H  c #FCFCB8",
"J  c #FCFC9C",
"K  c #FCFC7C",
"L  c #FCF85C",
"P  c #FCF440",
"I  c #FCF420",
"U  c #FCF400",
"Y  c #E4D800",
"T  c #CCC400",
"R  c #B4AC00",
"E  c #9C9C00",
"W  c #848400",
"Q  c #706C00",
"!  c #585400",
"~  c #404000",
"^  c #D0FC5C",
"/  c #C4FC40",
"(  c #B4FC20",
")  c #A0FC00",
"_  c #90E400",
"`  c #80CC00",
"'  c #74B400",
"]  c #609C00",
"[  c #D8FCD8",
"{  c #BCFCB8",
"}  c #9CFC9C",
"|  c #80FC7C",
" . c #60FC5C",
".. c #40FC40",
"X. c #20FC20",
"o. c #00FC00",
"O. c #00FC00",
"+. c #00EC00",
"@. c #00E000",
"#. c #00D400",
"$. c #04C800",
"%. c #04BC00",
"&. c #04B000",
"*. c #04A400",
"=. c #049800",
"-. c #048800",
";. c #047C00",
":. c #047000",
">. c #046400",
",. c #045800",
"<. c #044C00",
"1. c #044000",
"2. c #D8FCFC",
"3. c #B8FCFC",
"4. c #9CFCFC",
"5. c #7CFCF8",
"6. c #5CFCFC",
"7. c #40FCFC",
"8. c #20FCFC",
"9. c #00FCFC",
"0. c #00E4E4",
"q. c #00CCCC",
"w. c #00B4B4",
"e. c #009C9C",
"r. c #008484",
"t. c #007070",
"y. c #005858",
"u. c #004040",
"i. c #5CBCFC",
"p. c #40B0FC",
"a. c #20A8FC",
"s. c #009CFC",
"d. c #008CE4",
"f. c #007CCC",
"g. c #006CB4",
"h. c #005C9C",
"j. c #D8D8FC",
"k. c #B8BCFC",
"l. c #9C9CFC",
"z. c #7C80FC",
"x. c #5C60FC",
"c. c #4040FC",
"v. c #2024FC",
"b. c #0004FC",
"n. c #0000FC",
"m. c #0000EC",
"M. c #0000E0",
"N. c #0000D4",
"B. c #0000C8",
"V. c #0000BC",
"C. c #0000B0",
"Z. c #0000A4",
"A. c #000098",
"S. c #000088",
"D. c #00007C",
"F. c #000070",
"G. c #000064",
"H. c #000058",
"J. c #00004C",
"K. c #000040",
"L. c #282828",
"P. c #FCE034",
"I. c #FCD424",
"U. c #FCCC18",
"Y. c #FCC008",
"T. c #FCB400",
"R. c #B420FC",
"E. c #A800FC",
"W. c #9800E4",
"Q. c #8000CC",
"!. c #7400B4",
"~. c #60009C",
"^. c #500084",
"/. c #440070",
"(. c #340058",
"). c #280040",
"_. c #FCD8FC",
"`. c #FCB8FC",
"'. c #FC9CFC",
"]. c #FC7CFC",
"[. c #FC5CFC",
"{. c #FC40FC",
"}. c #FC20FC",
"|. c #FC00FC",
" X c #E000E4",
".X c #C800CC",
"XX c #B400B4",
"oX c #9C009C",
"OX c #840084",
"+X c #6C0070",
"@X c #580058",
"#X c #400040",
"$X c #FCE8DC",
"%X c #FCE0D0",
"&X c #FCD8C4",
"*X c #FCD4BC",
"=X c #FCCCB0",
"-X c #FCC4A4",
";X c #FCBC9C",
":X c #FCB890",
">X c #FCB080",
",X c #FCA470",
"<X c #FC9C60",
"1X c #F0945C",
"2X c #E88C58",
"3X c #DC8854",
"4X c #D08050",
"5X c #C87C4C",
"6X c #BC7848",
"7X c #B47044",
"8X c #A86840",
"9X c #A0643C",
"0X c #9C6038",
"qX c #905C34",
"wX c #885830",
"eX c #80502C",
"rX c #744C28",
"tX c #6C4824",
"yX c #5C4020",
"uX c #543C1C",
"iX c #483818",
"pX c #403018",
"aX c #382C14",
"sX c #28200C",
"dX c #600064",
"fX c #006464",
"gX c #006060",
"hX c #00001C",
"jX c #00002C",
"kX c #302410",
"lX c #480048",
"zX c #500050",
"xX c #000034",
"cX c gray11",
"vX c #4C4C4C",
"bX c gray36",
"nX c gray25",
"mX c gray19",
"MX c #343434",
"NX c #D8F4F4",
"BX c #B8E8E8",
"VX c #9CDCDC",
"CX c #74C8C8",
"ZX c #48C0C0",
"AX c #20B4B4",
"SX c #20B0B0",
"DX c #00A4A4",
"FX c #009898",
"GX c #008C8C",
"HX c #008484",
"JX c #007C7C",
"KX c #007878",
"LX c #007474",
"PX c #007070",
"IX c #006C6C",
"UX c #980088",
/* pixels */
"q q q q q q q q q q q q q q q q q q q q q q q q q q q q q q q q q q q q q q q q q q q q q q q q q q q q q q q q q q q q q q q q ",
"$ q $ 0 0 0 0 0 $ 0 0 0 0 0 0 $ 0 q 0 0 0 0 0 0 0 $ $ $ $ $ $ 0 0 0 0 0 0 0 0 0 $ $ $ $ $ $ $ 0 0 0 0 q q q 0 0 $ $ 0 0 0 0 0 q ",
"q t a a O O s d d f g yXuX0 0 $ eXO O O s d f f f f f d d f d d d s s d tX0 q $ eXa p a a s d f f f f d d d d d d d d d d F s 0 ",
"0 U D D m 0X0X0X0XeXeXeXrXL.0 $ 0X8Xm m 0X0XeXeXeXeXeXeXeXeXeXeX0X0X0X0XqXL.0 q 0Xm m m m 0X0XeXeXeXeX0X0X0X0X0X0X0X0X0XD D U L.",
"Y T W 2 2 2 2 2 2 2 2 2 2 2 2 2 2 2 2 2 2 2 2 2 2 2 2 2 2 2 2 2 2 2 2 2 2 2 2 2 2 2 2 2 2 2 2 2 2 2 2 2 2 2 2 2 2 2 2 2 2 T T Q ",
"8XE ! 7 7 6 6 6 6 6 6 6 6 6 6 6 6 6 6 6 6 6 6 6 6 6 6 6 6 6 6 6 6 6 6 6 6 6 6 6 6 6 6 6 6 6 6 6 6 6 6 6 6 6 6 6 6 6 7 7 7 Q 2X! ",
"0 uXuX6 6 6 6 4 4 4 4 4 4 4 4 4 4 4 4 4 4 4 4 4 4 4 4 4 4 4 4 4 4 4 4 4 4 4 4 4 4 4 4 4 4 4 4 4 4 4 4 4 4 4 4 4 4 6 7 6 6 k 8XL.",
"0 yXeX4 6 M s z z $ h h h h h h h h h h h h h h h h h h h h h h h h h h h h h h h h h h h h h h h h s a r y 6 z z z 6 1 7 yXpXL.",
"0 tXeX# 6 s 1 4 7 z 6 # 1 < 1 1 2 2 2 2 2 2 2 2 2 2 2 2 2 2 2 2 2 2 2 2 2 2 2 2 2 2 2 2 2 2 2 2 1 1 1 1 1 6 z 6 7 4 M 6 7 uXkXL.",
"0 tXeX2 4 z 4 1 4 6 5 4 # # 5 6 # < 1 2 2 2 2 2 2 2 2 2 2 2 2 2 2 2 2 2 2 2 2 2 2 2 2 2 2 2 2 5 +X8 1 2 # # # 7 # < s 7 6 pXkXL.",
"0 0 L.< # z 4 # 1 4 6 6 4 4 $ @X7 # < < 1 1 2 2 2 2 2 2 2 2 2 2 2 2 2 2 2 2 2 2 2 2 2 2 1 1 5 8 dXzX4 # # 4 4 # < 6 z 6 4 e e L.",
"$ q q < 2 $ 7 4 2 1 4 6 6 5 zX@X@X@X6 # < 1 1 1 1 1 2 2 zX7 $ zXzXzXzXD S Z 2 2 2 2 1 1 5 8 dX@XzXzX4 4 4 4 # < 1 8 $ 5 # e L.L.",
"p a 0X2 < z 6 4 # 2 1 4 7 8 0 lXzXzX@X@X6 # 2 2 2 2 2 2 zXzXzXzXzX6 zXD D S C 2 2 2 5 8 dX@XzXzXzX0 4 4 4 # 1 1 # 6 z 4 # tXk h ",
"u i 8X2 < h 4 5 4 # 2 8 @X7 8 0 lXlXzXzX@X@X@X6 5 2 2 2 7 zXzXzXzXzXzXD 5 2 2 5 8 dXdX@X@XzXzXzX0 7 7 zX8 # 1 # 5 6 z # 2 tXh f ",
"i p 0X2 < a # 4 5 4 8 +XdX0 7 8 0 lXlXlXlXOX@X@X@X7 5 2 2 zXzXzXzXzXzX5 2 5 8 dXdX@XOXzXzXzXlX0 7 $ +XdXdX8 # 4 6 5 h # 2 tXg d ",
"s s 0X2 2 d 2 4 5 5 lXdX+XdX@X0 8 0 q lXlX+XlX@X@X@X@X2 2 zXzXzXzXzXzX2 2 @XdXdX@XzX+XlXlXq 0 8 0 zXdXdX+X+X4 5 6 5 h # 2 rXg d ",
"d d eX2 2 f 1 # 4 5 lXlXdX+XdXdX@X0 $ q #X#XlXlXlX@X$ 2 2 zXzXzXzXzXzX2 2 $ lXlXlXlXlXlXq 0 0 lXzX@XdX+X+X+X5 6 5 5 h # 2 rXh f ",
"f d eX2 2 h < 2 # 4 0 lXlXdX+X+XdX@XlX#X#X#X#XlXlX5 2 2 7 zXzXzXzXzXzX7 2 2 5 lXlXlX#X#X#XlXlXzX@XdX+X+X+X$ 5 6 5 4 h 2 2 tXj g ",
"g f eX2 2 h < 1 2 4 8 0 lX@XdXdX+XdX@X+X#X#X#XlX5 zX7 2 zXzXzXzXzXzXzXzX2 7 lX5 lX#X#XlX@XlXlX@XdX+X+X+X$ 6 6 5 5 # h 2 2 tXj h ",
"k j rX2 2 h < < 8 zX7 $ $ 0 @XdXdX+X@XOXzX#X#XlXzXlXzX2 2 zXzXzXzXzXzX2 2 lXlXlXlXlXlX@X+XzX@XdXdX+X$ 6 8 0 0 8 4 # h 2 2 yXl k ",
"L.L.L.2 2 h 2 < @XzXlX0 $ $ $ 0 dXdX+X@XOXzXzXzXlXzXlX6 8 zXzXzXzXzXzX8 6 lXlXlXlXlXlX+X@X@XdXdX$ 5 6 8 0 #X#XlX4 # h 2 2 e e L.",
"$ $ 0 2 2 h 2 < dX@XzXlXlX#Xq 0 0 $ 8 @X@X@X@XlXlXlXzXzXzXzXzXzXzXzXzXzXlXlXlXlXlXlXzXzX@X$ 8 5 6 $ zXlX#X#X#XlX# # h 2 2 e L.L.",
"$ eX8X1 1 g 1 2 dXdXzXzXlX#X#X#XlXlX@XoX@X@X@XlXlXzXzXzXzXzXzXzXzXzXzXzXlXlXlXlXlXzX@X@XoX@X@X@XzXzXlX#X#X#X#X@X# # h 2 2 yXkXL.",
"$ a m < < d < 1 @XdX@XzXlXlX#X#X#XlXlXOX@X@X@XzXzXzXzXzXzXzXzXzXzXzXzXzXzXlXlXzXzX@X@X@XoX@X@X@XzXlXlX#X#X#XlX@X4 # g 2 2 tXpXL.",
"q O 8X1 1 f 1 4 7 @XdXzXzXlX#X#XlX#XlX+X@X@XzXzXzXzXzXzX$ $ 8 7 7 8 $ $ zXzXzX@X@X@X@X@XOX@X@XzXlXlX#X#X#X#XlX7 4 # g 2 2 yXpXL.",
"0 s 0X2 2 g 2 4 4 7 0 @XzXlXlXlXzXlXzX@X+XzXzXzXzXzXzXzX8 +XoX+X+XoX+X8 zXzX@X@X@X@X@XOX@X@XzXlXlXlX#X#X#X0 7 4 4 2 f 2 2 tXpXL.",
"0 d 0X2 2 h 2 zX@X0 8 7 7 8 8 $ 0 nXmXlXzX@XOX@XzXzXzXzX6 oX+X+X+X+XoX6 zX@XzX@X@XOX@X@X@X$ $ 0 nXq nX0 $ 8 0 dX+X1 d 1 1 tXkXL.",
"$ f eX# # h # zXzX@X@X@X@XzXlXzXlXzXlXzXlXzX@XOX+XzXzXzX$ +X+X+X+X+X+X$ zXzX@X+XOX@X@X@X@XzXlXlXlXlX#XlXlXzX@XdX+X< d < < tXkXL.",
"0 f eX# # j # zXzXzX@X@X@XzXzXlXzXlXzXlXzXzXzXzXzXzXzXzX6 oX+X+X+X+XoX6 zX@XzX@XzX@X@X@XzXlXlXlXlXlXlXlXzX@X@XdXdX1 d 1 1 tXkXL.",
"0 yXeX4 4 l 4 zXzX@XzX@XzX@XzXzXzXzXzXzXzXzXzXzXzXzXzXzX$ +XoX0 +XoX+X$ zXzX@XzX@X@X@XzXzXlXlXlXlXlXlXlXzXzXdX+XdX1 f 1 1 vXkXL.",
"0 0 q # # k # zXzXzX@XzX@XzXzXzXzXzXzX$ zXzXzXzX$ zXzXzX6 $ +X0 +X+X$ 6 zX@XzX$ @XzXzXzX$ lXlXlXlXlXlXlXzXzXdXdXzX2 g 2 2 e e L.",
"$ $ $ # # j # 8 zXzXzXzXzXzXzXzX0 7 zXzXzXzXzX$ zXzXzXzX$ 6 6 $ $ 6 6 $ zXzXzX@X$ zXzXlXzXlX7 0 lXlXlXzXzX@XdX@X8 2 h 2 2 e L.L.",
"d d 0X2 2 h 2 4 8 zXzXzXzX0 7 7 zXzXzXzXzXzX7 zXzXzXzXzXzXzX$ 6 6 $ zXzXzXzX@XzXzX7 zXzXlXlXlXzX7 7 0 zXzX@X@X8 4 2 h 2 2 tXk j ",
"a a 0X2 2 h 2 2 2 4 4 4 4 7 zXzXzXzXzXzXzX7 zXzXzXzXzXzXzXzXzXzXzXzXzXzXzXzXzXzXzXzX7 lXzXlXlXlXlXzX7 4 4 4 4 2 # # j # # tXj f ",
"O a 0X2 2 h 2 2 4 4 7 zXzXzXzXzXzXzXzXzX7 zXzXzXzXzXzXzXzXzXzXzXzXzXzXzXzXzXzXzXzXzXzX7 lXzXlXzXlXzX@X@X@X7 4 4 4 4 k 4 4 yXh f ",
"s s 0X2 2 h 2 2 zXzXzXzXzXzXzXzXzXzXzX7 zXzXzXzX7 zX7 zXzXzXzXzXzXzXzXzXzX7 zX7 zXzXzXzX7 lXzXlXzX@X@X@X@X@XzXzX5 5 l 5 5 yXh f ",
"d d eX2 2 h 2 2 zXzXzXzXzXzXzXzXzXzX7 zXzXzXzX8 4 7 zXzXzXzXzXzXzXzXzXzXzXzX7 4 8 zXzXzXzX7 zXzXzXzX@X@X@X@XzXzX4 4 k 4 4 yXj g ",
"f f eX2 2 g 2 2 7 zXzXzXzXzXzXzXzX7 zXzXzXzXzX4 zXzXzXzXzXzXzXzXzXzXzXzXzXzXzXzX4 zXzXzXzXzX7 zXzX@X@X@X@X@XzX7 4 4 j 4 4 yXj h ",
"g g eX2 2 g 2 2 4 zXzXzXzXzXzXzX7 zXzXzXzXzX4 zXzXzXzXzXzXzXzXzXzXzXzXzXzXzXzXzXzX4 zXzXzXzXzX7 zXzX@XzX@XzXzX4 # # j # # tXj j ",
"k j eX2 2 f 2 2 2 7 zXzXzXzXzX7 zXzXzXzXzXzXzXzXzXzXzXzXzXzXzXzXzXzXzXzXzXzXzXzXzXzXzXzXzXzXzXzX7 zXzXzX@XzX7 2 2 2 j 2 2 tXl k ",
"L.L.L.1 1 f 1 1 1 2 7 zXzXzX7 zXzXzXzXzXzX4 zXzXzXzXzXzXzXzXzXzXzXzXzXzXzXzXzXzXzXzX4 zXzXzXzXzXzX7 zXzXzX7 2 2 2 2 h 2 2 e e L.",
"$ 0 $ < < s < < < 2 2 4 4 4 4 zXzXzXzXzX4 2 oXzXzXzXzXzXzX7 zXzXzXzX7 zXzXzXzXzXzXoX2 4 zXzXzXzXzX4 4 4 4 2 2 2 2 2 h 2 2 e L.L.",
"q eX8X1 1 d 1 1 1 2 2 2 2 2 4 4 zXzXzX4 2 2 2 7 zXzXzXzXzXzXzXzXzXzXzXzXzXzXzXzX7 2 2 2 4 zXzXzX4 4 2 2 2 2 2 2 1 1 f 1 1 rXkXL.",
"$ a m 2 2 d 2 2 2 2 2 2 2 6 D D 6 2 2 2 2 6 D zXzXzXzXzXzXzXzXzXzXzXzXzXzXzXzXzXzXD 6 2 2 2 2 6 D D 6 2 2 1 1 1 1 1 f 1 1 rXpXL.",
"0 a m 2 2 f 2 2 2 2 2 2 2 D D D D D D D D D D rXrXzXzX7 2 zXzXzXzXzXzX2 7 zXzXrXrXD D D D D D D D D D 1 1 1 1 < < < d < < rXpXL.",
"0 O 8X2 2 f 2 2 2 2 2 2 2 2 6 8 rXD D D D rXrX6 2 2 2 2 zXzXzXzXzXzXzXzX2 2 2 2 6 rXrXD D D D rX8 6 2 2 2 1 1 1 1 1 d 1 1 rXpXL.",
"q s 0X2 2 g 2 2 2 2 2 2 2 5 D D D D D D D D D D 2 2 2 zXzXzXzXzXzXzXzXzXzX2 2 2 D D D D D D D D D D 5 2 2 2 2 2 1 1 f 1 1 tXkXL.",
"$ d 0X# # h # # # # 2 2 2 D rXrX5 D D rX2 5 rXD 2 6 zXzXzXzXzXzXzXzXzXzXzXzX6 2 D rX5 2 rXD D 5 rXrXD 2 2 2 2 2 2 2 h 2 2 tXkXL.",
"q f qX# # h # # # # # # 2 rX6 5 2 D rX2 2 2 2 6 $ zXzXzXzXzXzXzXzXzXzXzXzXzXzX$ 6 2 2 2 2 rXD 2 5 6 rX2 2 2 2 2 2 2 h 2 2 yXkXL.",
"$ yXeX2 2 h 2 2 2 2 2 2 2 2 2 2 2 D rX2 2 6 $ zXzXzXzXzXzXzXzXzXzXzXzXzXzXzXzXzXzX$ 6 2 2 rXD 2 2 2 2 2 2 2 2 2 2 2 h 2 2 yXkXL.",
"q 0 L.2 2 h 4 2 2 2 2 2 2 2 2 2 2 5 D 2 zXzXzXzXzXzXzXzXzX6 zXzXzXzX6 zXzXzXzXzXzXzXzXzX2 D 5 2 2 2 2 2 2 2 2 2 2 4 h 2 2 e e L.",
"$ q $ 2 2 h 6 2 2 2 2 2 2 2 2 2 2 2 2 2 6 $ zXzXzXzXzX8 2 zXzXzXzXzXzX2 8 zXzXzXzXzX$ 6 2 2 2 2 2 2 2 2 2 2 2 2 2 6 h 2 2 e L.L.",
"O O 0X2 2 6 h 6 4 2 2 2 2 2 2 2 2 2 2 2 2 2 6 $ zXzX8 2 6 zXzXzXzXzXzX6 2 8 zXzX$ 6 2 2 2 2 2 2 2 2 2 2 2 2 2 4 6 h 6 2 2 yXk j ",
"p p a 6 2 2 6 h h h 6 4 2 2 2 2 2 2 2 2 2 2 2 2 2 2 2 2 zXzXzXzXzXzXzXzX2 2 2 2 2 2 2 2 2 2 2 2 2 2 2 2 4 5 h h h 6 4 2 6 yXj f ",
"O O d k 6 2 2 2 4 6 h h h h 6 4 2 2 2 2 2 2 2 2 2 2 2 2 8 zXzXzXzXzXzX8 2 2 2 2 2 2 2 2 2 2 2 2 4 6 h h h h 5 4 2 2 2 6 k j j f ",
"d d f k k $ 6 2 2 2 2 2 4 6 h h h 6 4 2 2 2 2 2 2 2 2 2 2 8 zXzXzXzX8 2 2 2 2 2 2 2 2 2 2 4 6 h h h 6 4 2 2 2 2 2 6 $ k k k j h ",
"f f h j k j yX$ 6 2 2 2 2 2 2 4 6 h h h 6 4 2 2 2 2 2 2 2 2 8 zXzX8 2 2 2 2 2 2 2 2 4 6 h h h 6 4 2 2 2 2 2 6 $ tXyXk k k k j j ",
"f g j j k k k uXyXyXrX$ 6 2 2 2 2 2 4 6 h h h 6 4 2 2 2 2 2 2 8 8 2 2 2 2 2 2 4 6 h h h 6 4 2 2 2 2 2 6 $ k k k j k l l k k j j ",
"g g h h j k k k k k k uXyXtX$ 6 2 2 2 2 2 4 6 h h h h 6 4 2 2 2 2 2 2 4 6 h h h h 6 4 2 2 2 2 2 6 $ tXyXj k j j j l l l l l l l ",
"h h h h j j k k k l l l k k k k k z $ 6 2 2 2 2 2 4 6 h h h 6 4 4 6 h h h 6 4 2 2 2 2 2 6 $ z L.L.L.pXl l k k j k l l l l l l l ",
"l k k j j k k l l l l l l l l l z z e e L.$ 6 2 2 2 2 2 4 6 h h h h 6 4 2 2 2 2 6 $ l l l z z e L.L.kXl l l l k l z z z l z z z ",
"L.L.L.L.L.L.L.L.L.L.L.L.L.L.L.L.L.L.L.e e e e e L.$ 6 2 2 2 2 2 2 2 2 2 2 6 $ e e e e e L.e e e L.L.L.L.L.L.L.L.L.e e e e e L.L.",
"q $ q $ q q q 0 0 0 0 0 $ q q q q L.L.L.L.L.L.L.e e e e e $ 6 2 2 6 $ L.e e e e e L.L.L.L.L.L.L.L.q q 0 0 $ 0 0 0 0 nXq nX0 0 0 ",
"$ $ $ $ $ $ $ $ $ $ $ $ $ $ $ $ $ $ $ 0 q q q L.L.e e e e e e e e e e e e e e e e e L.q q q 0 0 $ $ $ $ $ $ $ $ $ $ $ $ $ $ $ $ "
};
