/* XPM */
static char *_550325826655[] = {
/* columns rows colors chars-per-pixel */
"64 64 256 2 ",
"   c #020301",
".  c #0C0300",
"X  c #050904",
"o  c #0A0B04",
"O  c #0B0D0B",
"+  c #050A0A",
"@  c #130300",
"#  c #1B0200",
"$  c #130B04",
"%  c #1B0B02",
"&  c #180D0A",
"*  c #0D110C",
"=  c #0B1307",
"-  c #12140E",
";  c #1C130B",
":  c #1C1A0C",
">  c #161607",
",  c #0D1211",
"<  c #0B1912",
"1  c #141513",
"2  c #1B1C14",
"3  c #1C1D1A",
"4  c #171716",
"5  c #0E0E12",
"6  c #230C01",
"7  c #270703",
"8  c #23140A",
"9  c #2B1B0C",
"0  c #261708",
"q  c #361A09",
"w  c #231C13",
"e  c #2B1D13",
"r  c #241915",
"t  c #331D13",
"y  c #361A15",
"u  c #330700",
"i  c #1D2215",
"p  c #1D221B",
"a  c #1B2819",
"s  c #1E2916",
"d  c #29210E",
"f  c #242315",
"g  c #2C2314",
"h  c #22241B",
"j  c #2B241A",
"k  c #262A1B",
"l  c #2C2A1D",
"z  c #2B2A16",
"x  c #342314",
"c  c #392415",
"v  c #33261A",
"b  c #342B1D",
"n  c #3C291B",
"m  c #3A2718",
"M  c #392913",
"N  c #1B3129",
"B  c #252621",
"V  c #272A23",
"C  c #2B2B24",
"Z  c #2D2D2A",
"A  c #2D2521",
"S  c #332C23",
"D  c #3C2C23",
"F  c #392A25",
"G  c #2D3129",
"H  c #2D3027",
"J  c #3C3323",
"K  c #32332D",
"L  c #39372B",
"P  c #353632",
"I  c #353A34",
"U  c #3B3C35",
"Y  c #3C3D3A",
"T  c #3B3431",
"R  c #2B3A34",
"E  c #211C22",
"W  c #48190A",
"Q  c #442C1C",
"!  c #472719",
"~  c #552616",
"^  c #4E2B17",
"/  c #6B301D",
"(  c #492C23",
")  c #582B24",
"_  c #483628",
"`  c #553829",
"'  c #463C34",
"]  c #573C34",
"[  c #693829",
"{  c #773C27",
"}  c #6B372E",
"|  c #3C423A",
" . c #2D423A",
".. c #54422D",
"X. c #42433C",
"o. c #49473A",
"O. c #584536",
"+. c #4F4731",
"@. c #674737",
"#. c #784938",
"$. c #784B33",
"%. c #374745",
"&. c #2C4C45",
"*. c #444541",
"=. c #464A43",
"-. c #4A4C44",
";. c #4D4E49",
":. c #4B4641",
">. c #554C44",
",. c #4B5147",
"<. c #53534C",
"1. c #59564B",
"2. c #5B5C55",
"3. c #5C5D59",
"4. c #555852",
"5. c #495951",
"6. c #695547",
"7. c #775647",
"8. c #655D56",
"9. c #714F47",
"0. c #5F605B",
"q. c #63635C",
"w. c #68665A",
"e. c #786758",
"r. c #78634D",
"t. c #646662",
"y. c #676964",
"u. c #6B6C65",
"i. c #6C6D6A",
"p. c #6A6762",
"a. c #746D66",
"s. c #6E726C",
"d. c #6E7366",
"f. c #72736D",
"g. c #787568",
"h. c #747571",
"j. c #757972",
"k. c #7B7C74",
"l. c #7D7E79",
"z. c #7D7674",
"x. c #6F7470",
"c. c #833C31",
"v. c #884736",
"b. c #85533B",
"n. c #915138",
"m. c #9A623F",
"M. c #885947",
"N. c #985949",
"B. c #895C53",
"V. c #8B5145",
"C. c #A15949",
"Z. c #89624D",
"A. c #98644B",
"S. c #886757",
"D. c #986857",
"F. c #87725C",
"G. c #9B735D",
"H. c #A76957",
"J. c #A7735C",
"K. c #B4745D",
"L. c #AC6951",
"P. c #996E63",
"I. c #837B6C",
"U. c #887868",
"Y. c #977767",
"T. c #837D73",
"R. c #847E7A",
"E. c #977C71",
"W. c #876A64",
"Q. c #A87968",
"!. c #B57A68",
"~. c #AA7E72",
"^. c #AB7165",
"/. c #C27D6A",
"(. c #C1775E",
"). c #7E827B",
"_. c #7D8377",
"`. c #83847C",
"'. c #8A8A7E",
"]. c #898478",
"[. c #988578",
"{. c #91816B",
"}. c #A8816C",
"|. c #A78677",
" X c #B48978",
".X c #BC9479",
"XX c #B38A72",
"oX c #B4A179",
"OX c #C88976",
"+X c #CE8E76",
"@X c #7E8A82",
"#X c #858582",
"$X c #8B8C83",
"%X c #8A8986",
"&X c #938D85",
"*X c #8E9188",
"=X c #929286",
"-X c #94948B",
";X c #9A9A8E",
":X c #99968B",
">X c #9C9C93",
",X c #999893",
"<X c #B88E81",
"1X c #A8968A",
"2X c #BA9587",
"3X c #A19E94",
"4X c #A89D96",
"5X c #B0948C",
"6X c #9EA097",
"7X c #A2A195",
"8X c #A4A49B",
"9X c #ACAA9D",
"0X c #AAA59B",
"qX c #B4A799",
"wX c #B2AC93",
"eX c #ACACA3",
"rX c #AAA6A1",
"tX c #B3ADA4",
"yX c #B5ADA9",
"uX c #B3B2A5",
"iX c #B5B4AA",
"pX c #BAB5AB",
"aX c #BBBAAD",
"sX c #B7B7A9",
"dX c #BDBBB3",
"fX c #B9B8B7",
"gX c #AFB2A6",
"hX c #C79887",
"jX c #CE9889",
"kX c #D0A894",
"lX c #E8A993",
"zX c #F3B79D",
"xX c #ECB29A",
"cX c #C1B8AE",
"vX c #D7B7A5",
"bX c #C3BDB4",
"nX c #C2B9B8",
"mX c #F5BAA5",
"MX c #ECB9AA",
"NX c #E39F8E",
"BX c #BEC1B6",
"VX c #CAC3BB",
"CX c #C7C6BB",
"ZX c #D6C7B6",
"AX c #F7C5A9",
"SX c #F1CCB3",
"DX c #EEC29F",
"FX c #BABDC2",
"GX c #BDC1C4",
"HX c #CCCBC2",
"JX c #CCC7C1",
"KX c #D2CCC3",
"LX c #D7D4C9",
"PX c #F1D7C9",
"IX c #FFE5D3",
"UX c #FFFCEF",
/* pixels */
"3 p w I Y Y Z t.l.4.P 4 4 3 3 E E Z Z I *.;.;.;.=. .P T A j j h h 3 V =.2.q.d.0.3.0.y.p.t.i.i.i.i.y.i.i.i.i.i.i.t.t.t.3.3.%.E + ",
"1 3 B Y *.Y P i.#X;.E E E B B B Z | R =.*.Z T B B Z h B r C C k H Z | 2.q.q.y.0.0.t.p.t.y.i.i.i.i.i.i.i.i.i.i.t.t.i.3.3.;.Y + 5 ",
"E B Z I %.T Y l.i.Y E E Z P K K R K C s A ' ' ( B 3 3 B Z K P  .| U X.2.w.d.y.2.p.p.p.t.i.x.x.i.i.i.i.i.i.i.i.i.i.i.t.3.4.4 + 5 ",
"Z P Z Z Y P ;.#Xt.Y P P Z C h w i > > z >._ y ] S C K %.=.=.| ,.I | =.2.u.y.y.q.p.i.i.i.i.x.x.i.h.i.x.x.h.i.i.i.i.t.t.3.P   5 + ",
"Z G P I X.I t.#X3.Z B B 2 2 2 : s : s | y ] |.T.' :.4.=.%.X.G a B | 2.d.u.0.t.q.i.i.i.i.i.f.h.f.x.h.x.x.x.i.h.i.y.i.t.;.  + 4   ",
"Z K P Y *.*.h.l.;.B - 4 1 2 i i s k d J ] B.2XkX>.' | K C C p < G <.t.x.s.t.y.u.i.i.i.i.f.s.h.j.h.h.h.h.h.h.i.i.s.i.t.B   5 X X ",
"K Z Z U Y :.l.h.*.B 2 3 h h p h k L ' e ) P.B.B.9.w w l S S L | =.q.y.u.d.y.u.s.i.x.h.i.f.f.f.z.h.h.h.x.h.h.h.h.f.t.*.  O O   O ",
"B h h U P ;.#Xi.Z h p h B C H U o.o.' e ) D.^.|.S.j b _ ' ] ] O.o.q.u.u.u.t.s.x.x.x.x.h.h.h.f.f.z.z.h.l.h.h.h.h.i.3.1 O O + X O ",
"r 2 P *.P 3.`.3.Z Z Z K Y U X.X.P K w 9 9.P.~.S.9.....9.7.S.B.) 6.a.a.w.d.d.d.x.x.d.s.s.j.j.j.f.h.).f.h.k.j.z.i.t.Y   O O O   o ",
"Z B I | I h.`.;.I U X.X.X.H f f r ; w n @.P.G.#.7.r.` S.<XOXhXA.6.a.g.g.w.d.j.j.j._._.x.j.j.j.j.j.h.l.j.j.j.s.f.4.+ o 1 o   *   ",
"K P Y ' ' @Xj.*.*.Y Z B h 3 i h j A S J 6.S.M.Z.}.S.) D.^.hXXXXXY.g.r.e.g.g.d.g.d.x.x._.j.j.z.j.l.s.l.k.h.l.h.y.B   O o -   o   ",
"Y U *.*.4.#Xt.X.3 3 h 3 w h h k T :.-.o.6.e.M.7.$.Z.^.K.V.H.J.^.XX}.e.r.U.I.g.g._._.x.x.j.j.k._.R.k.h.l.z.j.h.*.  3 O   *     X ",
"=.=.;.X.i.#X2.P 1 3 h h h C I o.o.<.o.o.M O.Z.^ @.M.D.OXH.V.L.J.}.XX|.F.F.U.I._._._._.k.k.k.k.k.l.`.h.z.z.j.3.- X 1 o -   o o   ",
"*.;.;.U j.`.<.h C C B C K X.o.=.| H i k d _ M.[ { A.H.N.v./ b.^.J.}..X.XY.F.U.I.g.d.k.k.`.k.k.k.l.j._.j.j.f.P   3   O o   * X   ",
"I <.=.X.R.j.*.B C Z Y =.,.o.K h s s s L O.O.M.D.N.v.c.c.A.V.) @.b.A.XXOX.X[.U.I.k._.k._.k.k._.T.l.z.l.k.h.-.- o 1 o -   * O   X ",
"K <.=.<.`.s.Y U =.<.-.U k 2 i k s L ,.,.1.r.D.J.!.N.c.N.OXOX$.7 W Z.D.G.hX2XF.Y.[.[.{.T.U.{.T.T.R.`.f.l.i.2   - o 2 O O o   X   ",
"I X.| s._.4.<.,.| K k i h k H | o.o.5.,.6.W.N.L.}.L.L.m.}.XXH.~ # 9.r.Z.XXjX+X+XkX2X|.{.F.{.{.g.I.g.R.g.*.  1 X o $ > o o   X X ",
"P =.=.s.`.2.P k l h i h G U o.1.o.o.5.w.W.P.H.N.n.m.}.L.A.C.H.{ # ] a.9.D..X+XzXkXQ.|.}..X}.[.1X[.1XI.8.+ O + O o o $ o o   X + ",
"<.4.4.f._.=.h p k V C | ,.o.o.| 1.2.w.d.[.^.H.v.{ m.L.m.n.$.M.7.t . 1.g.S.Z.J.+XhX7.Z.J.}.K. X5X1XE.a.A   1 , X X o o o X X X + ",
"4.-.2._.s.K i H H | -.<.,.,.<.w.d.d.d.d.~.^.v.$.{ m.m.n.m.$.Z.Y.1.  : O...@.}.XX!.@.~ $.A.A.M.M.9.] ] # o O 1 + X o X o X   X X ",
"-.U 0.`.q.I I -.<.;.*.-.3.t.t.t.e.g.g.e.E.D./ } b.L.n.v.b.Z.F.e.Y P O   . Q G.G.M.A.$.~ { { / ~ q c c w .   * , * X   X o X   X ",
";.| i.k.<.=.;.;.P -.2.y.i.i.i.h.g.g.g.U.~.D.W / A.A.n.{ $.F.6.z I 5.%.V . n S.XXvXZ.~ $.$.v./ ^ W ! t g . o + , + + X o o X X X ",
"X.-.h.z.2.<.-.-.t.h.z.j.z.h.x.x.I.g.I.U.|.Q.} W $.b.n.$.b.F.o.s %.%.%.%.> . 7.ZXPXJ.W @.^ ^ ^ Q q q 0 6 $ . * + , + + * = o X = ",
"-.<.h.i.3.3.3.l._.#X#X`.l.z.h.l.z.I.I.F.Q.!.V.u / Z.b.$.Z.@.s  . .%.%.%.V . O.vXSXhX$.W W 0 d J q q M 9 ; .   + , + + * o X o o ",
"i.t.y.h.i.h.l.%X*X*X*X%X@X#X#Xl.`.z.T.U.Y.Q.}.@.7 #.D.B.Y.+.a &.&.&. .R a   F vXPXMXH.# q 9 w.+.6 c q 0 e . . O + , ,   , O X > ",
"8.j.l.#X@X#X#X>X,X,X,X,X,X@X#Xl.R.R.].U.G. X<XP.7.( #.E.e.b R R &.&.R < <   ( qXMXPX<X# % 1.4.  0 ! x 9 % $ O O ,   , ,   * 3 - ",
"| f.#X;X6X,X%X>X8X6X,X>X,X,X%X@Xl.'._.e.W. X~.P.E.a.e.F.1.:  .5.&.N N < 4   F cXMXmXjXq . S 2   % 0 9 c 6 @ . .   4 E   * 1 > 2 ",
"U s.$X6XiXgX,X,XrXrX8X6X,X,X,X*X#Xk.d.g.P.|.P.7.Y.[.[.W.1.L =.R a N s k O   # 2XMXmXjX! @ O     > 9 e 6 @ @ & F 4   + + p > 1 : ",
"1.d.g.;XgXdXgX,X8XeXgXrX,X6X6X,XR.i.d.I.Y.hX!.Z.U.I.{.&Xf.Y ' X.d.{.{.r.S . . |.MXzXjX) @ 4 +   $ 8 8 @ 6.[.[.a.T - 4 , p p i - ",
"q.2.q.$X9XdXBX8X6XrXgXeXrXrX6X@X`.f.`.'.Y.<XjXXXF.[._.`.`.U Z E.2X.X.X}.r.z .  XAXxXlX7.@ 3   1 $ r e . 9.1XU.6.' 3 1 3 , p 2 > ",
"q.q.w.$X8XiXCXdX8X8XgXgXrX6X,X,X-X$X*X$XE.~.hXXX{.{._.'.#X8.6.~.jX+XK.}.G.` . 2XAXAXxXB.@ 4       & e @ 6.U._ . v   o h < 4 p - ",
"w.d.w.'.-X6XdXHXeXrXrXgXfXrXrXrX>X>X-X$X<X~. XXX{.F.]._.`.T.W.^.OX+X(.!.G.@.% kXAXAXxX~.y   O +   r S # ` U.` @ @ 1.a.1 p 2 2 2 ",
"f.q.R.$X*X8XgXHXBXgX8XgXfXgXeX8X8X>X:X&X[.|. XH.F.U.`.`.#XE.Q.Q.(.+X(.J.Q.$.` kXAXzX+X/.@.@ 1   @ % _ y m S._ @ 6.|.w.j r r E 3 ",
"f.t.l.%X-X6XeXBXLXfX9X9XiXaXiXeX8X3X3X:X&X1XQ.A.F.].].l.).].E.!.K.+XOXH.D.D.m.NXlXmXlXNXP.@ . O @ . t ( ^ 6.9.S.[.6.D J j 4 E 3 ",
"u.w._.%X*X>X8XfXHXJXBXeXeXgXaXiX8X8X0X3X&X5X XD.G.[.].l.@X`.{.}.K.K.+XOXA.Z.A.kXzXlXNXzX^.# O   . ] E.6._ @.7.@.` O..._ K f h 4 ",
"p.u.`.$X-X,X6XeXfXHXHXaX8XeXiXiXuXrXrX4X:X5X<XQ.F.[.$XR.@X_.{.|./.L./.jX!.b.A.oXlXlXzXmXhX!   r 8.E.E.Y.^ ` q 6 ! ...._ J f i - ",
"q.f.`.$X*X;X>XeXiXCXHXaX8X9XiXiXfXyXrXrX1X1X X~.Y.[.'.].@X_._.|. XH.!.+X/.N.Z.OX+XNXzXlXhXB.>.T >.! ( ) ! W 6 u ...._ _ J z k i ",
"q.h.`.'.*X,X>X8XeXBXHXHXaXeXiXdXnXfXyXyXwX1X<X|.Y.E.E.].@X_._.'.XX!.J.!./.N.Z..X+X(./.+XH.hXLX%X7 7 ( ( ( m q q M ..+.J J L z k ",
"q.j.`.`.*X-X>X6X6XgXHXLXCXsXuXsXfXfXiXgX9XqX5X2X X|.[.R._._._.d.Y.}.Q.Q.XXm.D.+X/.L.L.!.^.N.IXUXLX~.y ) q ! 6 q ^ _ M J +.z = z ",
"p.k.T.`.*X-X;X6XgX8XgXHXLXaXuXuXfXCXfXeX9X7X<X2XhX<X[.E.{.].].6.e.XX}.P.Q.A.}.+XC.v.(.C.V.} nXIXPXZXR.] x 6 m x d d b +.b d : > ",
"i.k._.'.'.*X;X6X7XeXsXBXZXLXCX9XpXdXBXaXgXwXwXhXXX.XvXkX{.U.].I.F.Y.S.Z.Z.G.OX+XC.n.n.c./ W S.kXkXcX'.. g v J b M d x b g : > w ",
"s.g._.`.$X*X;X>X8X8XuXaXCXLXCXBXeXuXaXaXsXwXqXwXQ.kXPXIXZX|.I.{.{.O.n Q M Q.jXOX+X/.c.W ~ u [ Y.&X].o.$ f b b J M z f g d : : 8 ",
"d.k.`.].'.*X;X>X7X8X9XuXaXLXLXKX9X9XgXaXcXuXqX2XF.vXIXPXSXkX|.}.6.0 n +.W @.H.H.K.L.c.W u # } B.8.1.2 L o.j b S L l w f g f w : ",
"f.k._.].'.*X;X;X7X7X9XtXuXCXLXLXuXeXgXaXcXcXyXqX|.kXDXSXDXAXSX XQ b b d y ) v.C.C.C.~ W q 7 ) 9.O.C H q.e.L l C J z f j l l f w ",
"d._._.`.'.*X=X;X7X>X9X9XwXaXCXCXCXsXuXsXVXbXcXyX5X2XvXSXSXmXmXhX@ X.S b _ [ / v.V./ u 7 6 6 ! ] ' & >.a.I.2.j b f 2 i l S C f w ",
"d.g._.`.$X$X=X;X;X7X0X9X9XuXCXdXZXVXsXpXcXcXFXyXtX1XkXZXDXmXmXP.. J ' ( @.[ / N.c.W 7 y 6 6 m ( F x O.g.].a.o.w w w 2 k l k f h ",
"_.g._._.'.*X=X;X;X;X7X0X9X9XsXdXLXLXbXyXyXnXFXfXyXqXwXoXlXzXxXP.# ' ] c 7.B.H.D.N.} u 6 6 % @ 0 8 _ _ e.E.z.w.b j f f f z k z h ",
"j._._._.'.'.=X-X;X;X3X0X9X9XsXHXPXLXKXnXyXfXFXFXaX4XwXoXoXjXMX~._ 8.F Q 9.V.~.~.V.9.7 7 % % ; $ 0 c ' ] g.[.U.8.b f f h k k i i ",
"'._._._.$X$X*X-X;X;X3X3X7XwXtXuX3XcXLXCXbX9XCXfXdXiX9XwX5X<X2X2X( ( y W } B.9.B.9.( 7 # # & @ @ % y v _ 6.T.[.e.J S j j k k i i ",
"-X$X`.`.#X$X$X=X;X,X;X7X7X9XwXtX3XaXZXZXVXtXtXbXsXaXuXtX5X5XqXjXV.W @.} } ) 7 ) ] ( # @ ; . . @ % 8 y v _ 6.r.e._ _ b v l f f h ",
",X*X#X'.`.$X$X=X=X;X;X>X7X0X9X9X9XCXKXLXVXbXtXuXaXaXsXtX4X5X5X5XP.{ V.#.) ~ ) ( y ( 6 . .   o o 8 0 8 e x ( O.6.O.+._ S b l h f ",
",X;X*X#X'.'.=X=X;X;X;X>X7X7X0X9XuXaXCXZXcXVXVX9XdXcXpXuXqX4X5X|.~.^.} V.) ) W.) # y ; .     = = r 0 7 9 t ! ] O.6.O._ J J l l f ",
"-X;X;X*X`.'.$X=X;X;X;X;X;X7XwX7X8X8XBXCXJXVXbXpXsXaXpXaXtXqX5X|.^.V.) #.) ) @.y r & . .     O 1 ; 0 0 0 t Q ` ..6.O.+._ _ J S f ",
"-X>X6X;X*X`.'.=X;X'.;X=X;X;X7X7X8XgXgXaXLXKXVXbXrXuXpXbXtXqX0X1XW.} ) ( y 7 7 r r @ .   . 5 * ; 6 9 q t q ! ` ] @.O.O.` _ L F v ",
"-X>X6X6X;X'.'.$X'.;X;X;X;X;X;X7X9XeXi.i.0XnXKXnXpXuXuXpXpX9XqX1X5X7.( y _ D y & $ ; o . & & ; & e t c c c Q ( ` ] O.O.] _ _ D b ",
"-X-X6X8X>X*X$X=X;X'.=X:X;X;X;X7XeXf.o h 8.rXJXVXbXpX0XpXpXsXuX3X1X5X&XW.I.T.4.' p.4.& . & & y F t t x ! Q ! ! ` ` ` O.] _ _ D b ",
"*X,X>X8X8X7X-X'.'.;X;X;X;X=X6X8Xf.  1 2 A 2.yXHXbXbX0XtXaX9XsX8X,X4X[.&X'.u.-.2.2.<.. % 7 y F ( c c n ( ^ Q Q ^ ( ` ` _ _ _ b x ",
"%X,X>X6X8X7X;X$X;X'.'.;X'.;X9Xq.  O 2 1 - 2 h.CXKXbXpX8X9XaXgXeX4X&X3X$X_.4.4.1.<.S $ r & e ( ( n n n Q Q Q Q Q ^ _ _ Q n b v g ",
"%X-X,X8X8X8X6X-X'.'.'.;X;X*Xq.X 5 3 5 $ 2 3 V $XJXnXbXrX8XiXeXgXrX4X3X&Xy.2.2.1.Y 2 S j r e F ( D n n Q ( Q Q Q Q Q n n x g e w ",
"%X&X-X6X7X8X8X6X'.;X7X'.*Xy.  i 4 5 1 4 O , o ;.8XHXbXdX9X8XeXuXrX4X3X#Xq.w.q.<.Z S ' w A y e D Q n M Q Q _ ^ M ! M M x g 0 w 8 ",
"#X%X,X,X4XrX8X8X;X$X-X-Xt.  4 p 5 5 + 5 * < i X q.dXcXbXyX0XyXeXyXrX:Xa.a.w.q.' T o.U ; l g ; b n m m m Q _ Q n m x x d 9 : : > ",
"#X%X&X,X>X4XrX8X7X=X#Xu.  4 3 5 5 4 4 5 * = < + 3 R.VXnXyXyX8X0XyXrX&Xs.a.p.<.Y 1.:.v w 9 g g 9 j c v m n Q Q Q M M d d d > > = ",
"R.#X%X,X,X>X6XrXrX8X4.  3 4 1 1 4 5 , + < * X p   T tXJXnXpX>XrX8X>Xk.T.u.w.>.<.8.T v j g 9 g 9 e x c t c n n M n M d d d > o = ",
"z.R.#X%X-X,X6X8X8Xq.  1 E 5 5 4 5 E + , < < * o 1 . a.cXbXfXrX>X>X_.k.k.f.;.1.q.1.S _ b b 8 0 d 9 e x t x c m M n d d d : > = o "
};
