/* XPM */
static char *_550332858506[] = {
/* columns rows colors chars-per-pixel */
"150 75 46 1 ",
"  c black",
". c #000006",
"X c #00000B",
"o c #00000C",
"O c #000011",
"+ c #000015",
"@ c #00001A",
"# c #00001D",
"$ c #000021",
"% c #000024",
"& c #000029",
"* c #00002E",
"= c #000030",
"- c #000037",
"; c #000039",
": c #00003E",
"> c #000042",
", c #000044",
"< c #00004B",
"1 c #00004D",
"2 c #000053",
"3 c #000057",
"4 c #00005B",
"5 c #00005D",
"6 c #000061",
"7 c #000065",
"8 c #000069",
"9 c #00006D",
"0 c #000073",
"q c #000075",
"w c #000078",
"e c #00007F",
"r c #000082",
"t c #000084",
"y c #00008B",
"u c #00008C",
"i c #000090",
"p c #000095",
"a c #00009A",
"s c #00009E",
"d c #0000A3",
"f c #0000A4",
"g c #0000A8",
"h c #0000AC",
"j c #0000B0",
"k c #0000B4",
/* pixels */
"ffffffffffffffffffffffffffffffffffffffffffffffffffffffffffffffffffffffffffffffffffffffffffffffffffffffffffffffffffffffffffffffffffffffffffffffffffffff",
"ffffffffffffffffffffffffffffffffffffffffffffffffffffffffffffffffffffffffffffffffffffffffffffffffffffffffffffffffffffffffffffffffffffffffffffffffffffff",
"fffffffffffffffffffffffffffffffffffffffffffffffffffffffffffffffffffffffffffffffffffffffffffffffffffffffffffffffffffffffffgfggfffffffffffffffffffffffff",
"ffffffffffffffffffffffffffffffffffffffffffffffffffffffffffffffffffffffffffffffffffffffffffffffffffffffffffffffffffffffgghghgghhgffdfffffffffffffffffff",
"ffffffffffffffffffffffffffffffffffffffffffffffffffffffffffffffffffffffffffffffffffffffffffffffffffffffffffffffffffffffffgggfggfgffffffffffffffffffffff",
"fffffffffffffffgfffffffffffffffffffffffffffffffffffffffffffffffffffffffffffffffffffffffffffffffffffffffffffffffffffggfspiiiiiiiadffgfgffffffffffffffff",
"ffffffffffffgghghgggffffffffffffffffffffffffffffffffffffffffffffffffffffffffffffffffffffffffffffffffffffffffffffggghhfpe8799879rafhhhgffffffffffffffff",
"ffffffffffffggggggffffffffffffffffffffffffffffffffffffffffffffffffffffffffffffffffffffffffffffffffffffffffffffffggghhfy5$ %*$ &6ufjhgffdffffffffffffff",
"ffffffffffffsapiiaadfffffffffffffffffffffffffffffffffffffffffffffffffffffffffffffffffffffffffffffgfffffffffgfggdspppsu0:       ,qisapaddfggffgffffffff",
"fffffffffggsuw989qydhhffffffffffffffffffffffffffffffffffffffffffffffffffffffffffffffghggghggghgggghggghghgggghhdie90q92&       =49q99eidhhggggggffffff",
"fffffffffggae2% +<qahhgfffffffffffffffffffffffffffffffffffffffffffffffffffffffffffffgggghggghgggggggggggggghghhsr3%%;-*+       @*--$&4tdjhggghfgffffff",
"ffffffffgggaq=    5tsfffffgffgfffffggfffffgfffgffffgffffffgfgfffffgfffgffffggffffffdsaaaaaaaaaaaaaaaaaaaaaaaassu8%      ..   X       -0usspaaaasffgfff",
"ffffffgggjhsw-    >6eusghggggggggggggggggggggggghgggggggggggggggggggggggggggghggghhdueqqwqqwwwqwwwqwwqwwqwwqwew02O       X  .X       $30ewww00wuafgfff",
"fffffffghjhsw>    X#<qagjhggghghgggggggghgghgghgggggghggghgggggghgghgggghggggghgghhse3*=>>>>>>>>>>>>>>>>>>>>>,>:&O                   O*:>,>>-*2qpggfff",
"fffffddsssdi0:       4rsfsasaasssssasssssassaasssaassssssssssasasassasaassasaassaddu7$                            ..               ..         O8igggff",
"fffgfsuewee04=       >8ereeweeewweweweweweweeewweeewewweewweeeweweweeweeeweweeewere92                             ..               ..         X7ighfff",
"fffgfpw3:>1,-@       &:<1<<<<<<<<<<<<<<<<<<<<<<<<<<<<<<<<<<<<<<<<<<<<<<<1<<<<<<<<11>*X                                             .          &9pfggff",
"ffgggi8@      .    .                                                                  ..                                                      *9ighfff",
"fffhgi7       X.  .X                                                                  ..                                                      *9pghgff",
"ffgggi9&                                                                                                                                      =0ahhgff",
"ffggfp9*                                                                                                                                      *8idffff",
"fffhgi8*                                                                                                                                      %3qypsfg",
"ffggfp9*                                                                                                                                      +*>6epfg",
"fffhgi8*                                                                                                                                         #7ufg",
"ffgggi8%                                                                  ..             .                                                  ..    5ufh",
"fffhgi7                                                                   oo             .X                                                  .   o7ufh",
"ffgggi9&                                                                                                                                         $7ifg",
"fffgfpe6124444434443444444434344344444434443444444434344344444434344453<*    *,45444452:$             .                                     .    O7ugg",
"fffgfdiyrrtttttttttyttytttytttttttyttttttttyttytttytttttttytttttttttyyr9<    <9ryytyyye6-             X                                     ..    6ufg",
"ffffffdddddddddddssddddsdsdddddddddsdddddssddddsdsdddddddddsddddddddffsr3    3rdfddffdpq>             .                                     .    X7ufh",
"fffffffgghhgghghgggghghgghhghggghghgghghgggghghgghhghggghghgghghgghgjjgy5    5ugjjghjjdw,    =,2332>*.                                         $;4wpfg",
"fffffffgggggfgggggggfgggfgfgggfgfgggfgggggggfgggfgfgggfgfgggfgggfggghhfy4    5ugjhggjjde,    10tytr8<X                                ..       <9rpsfg",
"ffffffffffffffffffffffffffffffffffffffffffffffffffffffffffffffffffffggdt4    4yfjgffhgsw,   +6udgfst5o                                ..      +6udgfff",
"ffffffffffffffffffffffffffffffffffffffffffffffffffffffffffffffffffffggdr3    2widfffdsu8-  *4eshkkhi7O                                  @=,1>;3esghgff",
"ffffffffffffffffffffffffffffffffffffffffffffffffffffffffffffffffffffggdr1    ;39tagfpe6>O#20yafjjkhi7O                                  *4qreqrudggfff",
"ffffffffffffffffffffffffffffffffffffffffffffffffffffffffffffffffffffggdr2    o *7ifsr2O  -0ifggghjgi7O                                  :0isdasdddffff",
"ffffffffffffffffffffffffffffffffffffffffffffffffffffffffffffffffffffggdy8:@O    >epu8@   ;9iddaaasar4o                                  ,eshjhggffffff",
"fffffffffffffffffffffffffffffffffffffffffffffffffffffffffffffffffffffgdayq4-    *6q02    &4qrrwqweq6>X                                  ,edjjhgfffffff",
"ffffffffffffffffffffffffffffffffffffffffffffffffffffffffffffffffffffffffdae1    #->:*X   O*:,,,>>,>-$.                                  ,eshhgffffffff",
"ffffffffffffffffffffffffffffffffffffffffffffffffffffffffffffffffffffffffhgi9:          .                                                :9idffffffffff",
"fffffffffffffffffffffffffffffffffffffffffffffffffffffffffffffffffffffffghgsy03-                          .                              *30tisgfffffff",
"fffffffffffffffffffffffffffffffffffffffffffffffffffffffffffffffffffffffffffdpe3                          X.                             +$-5raggffffff",
"ffffffffffffffffffffffffffffffffffffffffffffffffffffffffffffffffffffffffffghgp9; @********************%@                             ..    &9pghffffff",
"ffffffffffffffffffffffffffffffffffffffffffffffffffffffffffffffffffffffffffghgsy978899989989999899999095;    ..                        ..   #8pgggfffff",
"fffffffffffffffffffffffffffffffffffffffffffffffffffffffffffffffffffffffffffffdapiipiiipipiippiipiippaie1    X.                             =9pghffffff",
"ffffffffffffffffffffffffffffffffffffffffffffffffffffffffffffffffffffffffffffffffggfgfgfgfggffgfffgfghgi9=                                  ;0pggffffff",
"fffffffffffffffffffffffffffffffffffffffffffffffffffffffffffffffffffffffffffffgghghhghghghghghgghhghhhhst92-@                               :qahhgfffff",
"ffffffffffffffffffffffffffffffffffffffffffffffffffffffffffffffffffffffffffffffffgffgfgfgfgfgfggffgfggfdaie4%                               ;qshhgfffff",
"ffffffffffffffffffffffffffffffffffffffffffffffffffffffffffffffffffffffffffffffffffffffffffffffffffffffggfp9*                               ;0ifgffffff",
"ffffffffffffffffffffffffffffffffffffffffffffffffffffffffffffffffffffffffffffffffffffffffffffffffffffffgjhp0=                               *5eiadfgfff",
"ffffffffffffffffffffffffffffffffffffffffffffffffffffffffffffffffffffffffffffffffffffffffffffffffffffffgggp9=                               #;18tafgfff",
"ffffffffffffffffffffffffffffffffffffffffffffffffffffffffffffffffffffffffffffffffffffffffffffffffffffffgggi9*                                  =9ifhfff",
"fffffffffffffffffffffffffffffffffffffffffffffffffffffffffffffffffffffffffffffffffffffffffffffffffffffffhfp9*                             X.    7pghgff",
"ffffffffffffffffffffffffffffffffffffffffffffffffffffffffffffffffffffffffffffffffffffffffffffffffffffffgggi9*                              .   $9aghgff",
"fffffffffffffffffffffffffffffffffffffffffffffffffffffffffffffffffffffffffffffffffffffffffffffffffffffffhfi8*                                  *9pghgff",
"ffffffffffffffffffffffffffffffffffffffffffffffffffffffffffffffffffffffffffffffffffffffffffffffffffffffghgp9*                                  &5rpsdff",
"ffffffffffffffffffffffffffffffffffffffffffffffffffffffffffffffffffffffffffffffffffffffffffffffffffffffghha0=                                  #:30tafg",
"ffffffffffffffffffffffffffffffffffffffffffffffffffffffffffffffffffffffffffffffffffffffffffffffffffffffghgp9*                                  .  ;9ifh",
"ffffffffffffffffffffffffffffffffffffffffffffffffffffffffffffffffffffffffffffffffffffffffffffffffffffffddar6&                                ..    5ufh",
"ffffffffffffffffffffffffffffffffffffffffffffffffffffffffffffffffffffffffffffffffffffffffffffffffffffgfpyq5,@                                ..    6ufg",
"fffffffffffffffffffffffffffffffffffffffffffffffffffffffffffffffffffffffffffffffffffffffffffffffffffggfp0,X X                                     $8ufh",
"fffffffffffffffffffffffffffffffffffffffffffffffffffffffffffffffffffffffffffffffffffffffffffffffffffggfu5    ..                                   #7ufh",
"ffffffffffffffffffffffffffffffffffffffffffffffffffffffffffffffffffffffffffffffffffffffffffffffffffffhfu6    ..                              ..    6ufh",
"fffffffffffffffffffffffffffffffffffffffffffffffffffffffffffffffffffffffffffffffffffffffffffffffffffggfu7#                                   ..    6ufg",
"fffffffffffffffffffffffffffffffffffffffffffffffffffffffffffffffffffffffffffffffffffffffffffffffffffggfi7$                                       X>9ifg",
"ffffffffffffffffffffffffffffffffffffffffffffffffffffffffffffffffffffffffffffffffffffffffffffffffffffhfu6    ..                        ..       :5qyafg",
"fffffffffffffffffffffffffffffffffffffffffffffffffffffffffffffffffffffffffffffffffffffffffffffffffffghfu6    ..                        X.       4raddff",
"fffffffffffffffffffffffffffffffffffffffffffffffffffffffffffffffffffffffffffffffffffffffffffffffffffggfi9;                               X#&*@ >0agggff",
"ffffffffffffffffffffffffffffffffffffffffffffffffffffffffffffffffffffffffffffffffffffffffffffffffffffgfay03-                             +<79970yshhgff",
"ffffffffffffffffffffffffffffffffffffffffffffffffffffffffffffffffffffffffffffffffffffffffffffffffffffffdspe3                             $6tapipsdgffff",
"fffffffffffffffffffffffffffffffffffffffffffffffffffffffffffffffffffffffffffffffffffffffffffffffffffffffggp0;  $$$$$$$$$$$$$$$$$$$$$$$#  <eahhgffffffff",
"ffffffffffffffffffffffffffffffffffffffffffffffffffffffffffffffffffffffffffffffffffffffffffffffffffffffghgsy956777778777887778777787777660udghhggffffff",
"fffffffffffffffffffffffffffffffffffffffffffffffffffffffffffffffffffffffffffffffffffffffffffffffffffffffgfdaiuuiiuiiiuiiiuuiuiiuiuiuuiuuuiadggggfffffff",
"ffffffffffffffffffffffffffffffffffffffffffffffffffffffffffffffffffffffffffffffffffffffffffffffffffffffffffffgfffffffffffgfffffffgffggfffffffffffffffff",
"ffffffffffffffffffffffffffffffffffffffffffffffffffffffffffffffffffffffffffffffffffffffffffffffffffffffffffgghgghhghghghgghghghhghgghghghggffdfffffffff"
};
