/* XPM */
static char *_550325460126[] = {
/* columns rows colors chars-per-pixel */
"64 64 252 2 ",
"   c #181A0A",
".  c #171003",
"X  c #271B08",
"o  c #381C0D",
"O  c #1D2617",
"+  c #0E2010",
"@  c #2A220E",
"#  c #36240B",
"$  c #282717",
"%  c #342A15",
"&  c #3B2C14",
"*  c #332B1C",
"=  c #372916",
"-  c #3D321B",
";  c #3B3219",
":  c #2D3727",
">  c #3D3323",
",  c #393928",
"<  c #332F22",
"1  c #44270E",
"2  c #56270B",
"3  c #452B17",
"4  c #5A2B13",
"5  c #44341C",
"6  c #4B341C",
"7  c #44341A",
"8  c #5A361B",
"9  c #5E3A1C",
"0  c #583416",
"q  c #63331C",
"w  c #633C1D",
"e  c #663719",
"r  c #622E19",
"t  c #433523",
"y  c #4C3C23",
"u  c #463928",
"i  c #543D24",
"p  c #5B3C25",
"a  c #563A26",
"s  c #4A382F",
"d  c #643D22",
"f  c #6C3A23",
"g  c #723B27",
"h  c #793F31",
"j  c #511D08",
"k  c #3B4938",
"l  c #67431D",
"z  c #73421E",
"x  c #4B422A",
"c  c #5C432C",
"v  c #584429",
"b  c #484837",
"n  c #5D4B33",
"m  c #534B3A",
"M  c #594736",
"N  c #48503D",
"B  c #59533C",
"V  c #644225",
"C  c #6B4424",
"Z  c #64442A",
"A  c #6C452B",
"S  c #6C4A2C",
"D  c #67492A",
"F  c #734B2A",
"G  c #7B4B2C",
"H  c #764628",
"J  c #77522D",
"K  c #644D35",
"L  c #6B4C32",
"P  c #654A37",
"I  c #734D33",
"U  c #7B4C34",
"Y  c #7A4634",
"T  c #6B5134",
"R  c #65523A",
"E  c #6B543B",
"W  c #695539",
"Q  c #7C5433",
"!  c #7B543A",
"~  c #725B3D",
"^  c #765539",
"/  c #574C42",
"(  c #5A5646",
")  c #485040",
"_  c #6C5B42",
"`  c #665947",
"'  c #735C44",
"]  c #7B5A47",
"[  c #655E51",
"{  c #685855",
"}  c #7A5B54",
"|  c #674C44",
" . c #73634B",
".. c #7A654B",
"X. c #796548",
"o. c #696556",
"O. c #7D6A53",
"+. c #756955",
"@. c #71664F",
"#. c #736D6D",
"$. c #5D755F",
"%. c #824A2C",
"&. c #81532D",
"*. c #834D33",
"=. c #884E36",
"-. c #815434",
";. c #84543C",
":. c #845B3C",
">. c #8B5C3C",
",. c #895837",
"<. c #965D3B",
"1. c #8C623C",
"2. c #88623A",
"3. c #97643D",
"4. c #A1663E",
"5. c #8B5C43",
"6. c #885944",
"7. c #925C43",
"8. c #955C4B",
"9. c #855E56",
"0. c #8F5549",
"q. c #866343",
"w. c #8D6343",
"e. c #8C644B",
"r. c #866A4C",
"t. c #946544",
"y. c #9B6545",
"u. c #936B45",
"i. c #9C6B45",
"p. c #93654A",
"a. c #9B654B",
"s. c #956B4A",
"d. c #9B6C4B",
"f. c #95714B",
"g. c #9C724C",
"h. c #9A7246",
"j. c #8C6C54",
"k. c #876655",
"l. c #9B6D52",
"z. c #966853",
"x. c #867253",
"c. c #897659",
"v. c #9C7353",
"b. c #977759",
"n. c #A36B4D",
"m. c #A46849",
"M. c #A3734D",
"N. c #A7774E",
"B. c #A36D52",
"V. c #A76C55",
"C. c #A47453",
"Z. c #AB7454",
"A. c #A47A55",
"S. c #AB7A54",
"D. c #AB755B",
"F. c #A57B5C",
"G. c #AC7B5B",
"H. c #A4745A",
"J. c #B17C55",
"K. c #B37D5C",
"L. c #B5785A",
"P. c #B0754B",
"I. c #866765",
"U. c #897C62",
"Y. c #967665",
"T. c #907374",
"R. c #AA7C62",
"E. c #B57D62",
"W. c #AA6E63",
"Q. c #7B8E79",
"!. c #AC835C",
"~. c #A88257",
"^. c #B3835C",
"/. c #B9865C",
"(. c #8C8668",
"). c #958467",
"_. c #998C73",
"`. c #97977A",
"'. c #858672",
"]. c #A88667",
"[. c #B48363",
"{. c #BB8464",
"}. c #BB8A64",
"|. c #BC866B",
" X c #BC8C6B",
".X c #B48868",
"XX c #BB916B",
"oX c #AB9376",
"OX c #B69375",
"+X c #B28D70",
"@X c #C28B66",
"#X c #C38C6B",
"$X c #C58768",
"%X c #C4926B",
"&X c #CB946C",
"*X c #C7976C",
"=X c #D3976D",
"-X c #CB8E72",
";X c #C48E71",
":X c #C49372",
">X c #CB9573",
",X c #CC9A74",
"<X c #CC9B7A",
"1X c #C79977",
"2X c #D39B74",
"3X c #DA9D75",
"4X c #D49C7C",
"5X c #DB9C7A",
"6X c #D29574",
"7X c #CBA278",
"8X c #D5A27B",
"9X c #DCA47C",
"0X c #D9A67A",
"qX c #E1A57D",
"wX c #E7A87D",
"eX c #E59E7E",
"rX c #7E6F84",
"tX c #877689",
"yX c #947D87",
"uX c #917E91",
"iX c #7FA58C",
"pX c #99818B",
"aX c #9C9D85",
"sX c #988C91",
"dX c #A39E86",
"fX c #AA8F8F",
"gX c #8CA48C",
"hX c #89A78C",
"jX c #93A38B",
"kX c #98A589",
"lX c #8BA992",
"zX c #89A891",
"xX c #93A791",
"cX c #93B092",
"vX c #A8A389",
"bX c #D59E81",
"nX c #D99D80",
"mX c #CA9B83",
"MX c #D5A282",
"NX c #DCA383",
"BX c #DDA983",
"VX c #DDA789",
"CX c #D9A98A",
"ZX c #CFAC8E",
"AX c #E2A683",
"SX c #E2A885",
"DX c #E5AA8A",
"FX c #ECAD8A",
"GX c #EAA985",
"HX c #F3AD8B",
"JX c #E9B38C",
"KX c #F2B38F",
/* pixels */
"lXlXiXiXiXhXhXzXzXzXhXhXzXgXQ.$.k + O O : : : O O $ O +   O < , k , < $ @ * b m [ B W B _ @.W B N N N N N N N b N N ) k ) k k k ",
"lXlXlXiXhXzXzXzXzXzXgXgXgXzXQ.$.k + : O O O $ + +   O $ $ < , s m / m m m / [ +.+.O.+.@.@.@.@.B B b x ; : , k ; k k N N k k : k ",
"zXzXlXlXzXlXhXgXzXgXgXgXxXxXQ.$.k . O $ : $ $     $ * , m / ( ` [ @.+.+.@.+.O.O.@.@. .~ _ _ _ _ B N k x ( ( [ o.( o.$.o.) N k k ",
"zXzXlXlXlXlXxXgXgXgXgXsXcXxX'.o.k .   $ k : x , u s B ` { o.{ +.{ O.+.@. . . . .~ W B n n W _ @.@.( B ` o.o.#.o.o.o.o.o.[ b b k ",
"lXlXlXxXxXhXgXgXxXjXjXkXvXvXpXo.k X # , B B @.@.@.@.+.+.` | M M P E _ E R K E R E R K n v v c P B B m / [ o.o.{ [ [ [ ( ( ) b b ",
"zXlXhXcXxXjXjXjXsXjXvXkXvXxX'.o.n x M n X.@.O.O.O.O..._ M a y a c P ' _ E E T K K T R E n v i y y y u s / { { +.o.o.[ [ ( ( / / ",
"zXzXcXhXcXhXkXjXkXaXaXaXkX`.'.+._ W O.X.X.X.X.O. .} ' R n c P E ] ..r.r.] ' ~ R ` E _ _ _ R c M x s s > t u b / ( [ [ [ [ ( ( / ",
"zXhXhXcXxXkXkXkXkXkXdX`.`._.(.@.X...).x.x.O.X.X.x.O...' ' ] O.x.c.b.U.j..... .' R P n R ` n M M M m s , * * > t / ( [ o.( ( / / ",
"cXcXcXcXcXcXcXcXdXkX`.`.(.(.x.O.x.x.f.x.x.r.X.~ W _ X.X.O.......O.O..._ K n K ` n M s y t > > > , u u , * * * ; b m B B ( ( ( ` ",
"cXcXQ.`.`.kX`.`.`._.(.(.(.(.c.(.c.x.(.x.c.X.X.X.X.X.X.W K v i 6 6 5 & @ X = x R ` ` M x > > * * * * > * * ; , x , s b b B m B B ",
"cX`.cX`.kX`.`.`.'.(.(.(.(.).).).).x.c.x.r.X.~ ~ ~ W v v 7 7 # # @ # @ o X % ; x M b b u s > * $ X @ $ % $ % @ @ * % > x x x b b ",
"cXcX`.kXkXkX`._.(.(.(.).).).x.x.x.2.X.~ ~ W D W K n v y y y t 5 y y x y 5 ; % % # * - t u t - % @ @ @ @ @ @ @   % % ; - 7 x x x ",
"`.`.vXcX`.`._.(.(.).).).1.X.Q ~ ^ L D c D D K K ~ W n n n n M i x x x 7 ; & # @ @ = % - t u > > % % * ; - - ; % ; & 7 7 7 7 x y ",
"`.cX`.oX`._.(.x.r.x.r.r.X.X.2.~ ^ L L L T L K L W W n v a s y 5 5 - ; ; ; & & # & = & & 5 y y y 5 5 5 t 5 7 5 7 7 7 & & ; & & ; ",
"vXoXoX_.(.x.X.~ T T ^ ^ q.q.2.2.! ^ I ! ] E E P c p v 5 6 6 5 5 7 7 7 y y y 7 7 t 7 6 y i v v v i t y 5 1 & 7 7 7 7 7 & & # # # ",
"vX_.(.(.X.~ K v 0 0 l J :.2.J D Z d L ^ ] ! I S p c p 6 6 6 y i y 6 6 6 y i v v i c D K R P Z p p a y 6 7 7 0 6 i 9 6 0 1 1 1 1 ",
"_.(.O._ n v v l D J :.w.a.s.-.e A A I ! q.5.! J C d w 9 V w 9 0 6 8 p p d Z Z A Z Z L L L I L ^ L D P V d Z P P ^ ^ ^ P p 6 1 1 ",
"_.)...W D D T J q.s.A.!.[.^.C.t.t.e.s.z.v.l.d.t.>.,.Q G J S C V C S S I I ^ ! ! ! 6.e.e.p.e.e.e.e.e.e.q.q.e.e.j.j.z.j.e.! A d f ",
").x.' K D T 2.u.!. X>X<X<X4X>X:X.X.XR.E.[.[.[.G.A.C.d.p.u.s.s.t.s.p.s.p.p.s.d.v.G.R.[..X.X.X.X.X.X.X.X[.].!.[.!..X.X].R.l.e.6.] ",
"O. .K v c I X.f.R. X<X4X8XMXnXMX<X<X:X;X;X-X:X;X$X$X{.|.}. X}.}.|. X[.[.E.[.^.[. XXX:X:X>X:X,X*X,X:X:X X}. X.X}. XOX X+XR.v.a.e.",
"| P p a p L 6.5.C.G. X>X2X4X4X4XbXbXbXbXbXbXbXnXnXnX4X4X4X4X>X>X>X:X,X:X&X#X#X#X&X&X&X&X=X=X*X*X&X*X&X&X%X&X*X%X X%XXX}.[.H.d.u.",
"P | p p d S ! :.a.C.[.#X>X<X4X4X4X<XbXNXNXNXAXnXNXNXBXAXBXNX8X8X6X3X5X5X9X3X3X2X2X2X=X3X3X3X3X2X=X&X&X&X&X%X%X*X}.}. X[.F.g.t.:.",
"| M a a p A ! :.s.C.^.#X:X>X,X,X1X4XbXbXVXVXVXnXNXNXVXSXNXSXBXSXNXAXDXDXSXSXqXAXqXqX9XqX0XqXqX0X=X=X=X&X&X@X@X/.}.[.[.!.C.1.Q C ",
"| P p a p A ! :.s.C.[.}.XX%X*X7X4XmXMXVXVXVXVXVXVXVXVXBXBXBXSXSXAXGXDXDXDXqXNXqXSXSX0X9XqXqX0X0X2X=X=X=X=X*X&X@X}.}.[.A.u.-.C e ",
"P Z p p Z J q.f.v.G.[.}.XX*X7X7XMXBXMXMXMX<X<X1XbXmX8X4X0X0X0X9XSXSXDXDXVXnXnX4X8XMX9X4X2X,X2X8X8X4X,X%X>X:X#X|.[.!.F.f.6.F 9 4 ",
"' P Z p D ^ q.f.~.!.XXXX*XXX*XXXXXXX.X!.H.C.l.l.l.l.C.S.^./.%X>X<X>X-X>XmX4X>X,X;X%X%X X[.^.!.^.}.$X#X:X:X1X:XOXG.F.v.f.6.S 9 2 ",
"] E P d D Q f.~.!.}.*X*X*X}.~.N.1.,.Q F A C f r e e f C %.,.m.P.E.|.|.#X:X X|.E.Z.B.s.,.-.G H F G U ,.7.l.A.H.l.v.b.l.j.e.^ v 0 ",
"] ^ D 9 C 2.v.}.*X7X7XXX}.~.3.&.G H l l C f d d 0 0 4 r e g &.4.E.|.#X;X;XE.a.>.-.G l r 2 2 4 4 2 r q f I U ;.6.p.z.z.z.e.! A 8 ",
"2.Q S l H 1.^.*X0X0X2X%X^.M.,.z C z C H Q ! I A e 4 4 2 j r %.<.E.;XMXMX:XD.>.H e 4 4 4 4 q f f H g f f g A Y 6.6.p.z.z.s.:.I w ",
"A.f.,.&.,.M./.=XBX0X2X@X/.N.3.&.G F H U ;.6.! Y f 4 2 2 2 e %.<.{.mXJXJX4XE.,.f 4 r e H Y U I I g f q p 4 f A U 5.l.v.C.z.e.U e ",
" X!.M.3.4.P.%X3X0X9X0X=X&X@XJ.Z.M.a.w.5.5.5.6.6.Y Y Y *.=.<.V.$X6XSXKXJX8X|.m.*.H H Y U :.6.Y Y q r r r r f Y ;.l.D.R.G.C.p.-.e ",
"*X}.N.i.M.J.@X0X0XSXqXqXqX3X3X=X}.K.B.8.5.6.;.=.8.5.7.a.P.P.$X3XDXJXKXFXNX#XZ.<.*.%.*.=.>.;.;.=.Y Y =.=.=.=.>.l.B.G.K.G.B.y.%.e ",
"4.~.~.!.}.*X0X0X0XSXGXGXHXHXHXGXeXeX-XL.L.{.$XE.{./.$X=X=X=X=XqXGXFXHXDX5X-X|.E.V.n.8.7.=.%.%.%.%.=.<.t.m.D.K.K.[.[.^.^.B.,.H z ",
"!.}.XX7X7X8X0X0X0XwXwXFXHXHXHXHXHXHXHXnXGXFXHXDXeX3X=X3X3X=X3XwXGXDXDXAX5X6X$XE.-X-X-X$XL.V.V.M.P.Z.L./.@X#X#X@X/.K.^.^.C.1.&.&.",
"7X7X7X7X0X7X0X8XqXSXGXHXHXHXHXHXHXHXHXDXHXHXFXDXnX5X9XqXwXqXqXwXKXJXJXGXAX6X-X$X$X6X5X5X9X5X6X&X&X&X2X2X4X0X=X%X/.K.J.S.N.h.3.3.",
"0XZX0X7X,X7X*X*X0XSXSXqXqX0X3XeX5XeX5X6X-X$X{.{.#X6X9XKXKXwXGXJXFXFXGXDXAX5X-X-X{.$X$X&X6X2X5X9XqX9X5X2X2X0X2X%X}.^.J.S.N.M.M.M.",
"JXJX0X7X*X*X%X%X2X3X3X2X&X$X$X$X$X$XL.L.L.V.Z.Z.{.$X4XBXMX9XAXFXSXAXAXGXnX5X6X6X6X$XL.P.P.P.=X3X5X5X2X=X3X0X2X%X/.^.N.N.N.N.~.~.",
"7X*X*X*X%X%X@X%X%X%X$X$X$X}.$XL.V.m.m.m.B.V.V.H.D.H.D.d.y.m.V.J.#X-X-X$XE.E.L.L.V.P.m.<.<.4.P.J.@X@X&X&X,X=X%X/.S.N.M.f.g.~.^./.",
"/./.~.~././.@X@X}.@X[.K.L.L.Z.V.7.=.0.m.H.W.R.|.R.W.d.;.Y G %.%.,.7.<.7.=.h h H %.=.<.4.4.<.3.4.P.P.L./././.K.Z.M.d.d.s.f.F.+XXX",
"0X*X*X/.J.J./.}.@X[.J.A.D.M.y.7.=.=.<.V.E.OXmXmXmX1X|.R.a.7.*.H f g %.h g f g g =.m.V.P.4.<.<.<.<.3.m.n.n.M.V.C.a.v.z.p.f.].oXOX",
"0X0X0X*X*X/././.K.S.Z.A.K.D.B.7.=.H G ;.l.R.E.+XR.+XE..XR.H.n.m.8.0.0.=.0.0.V.W.E.|.|.E.Z.m.y.<.7.7.y.8.8.p.z.z.z.z.z.Y.Y.Y.Y.T.",
"JX0X0X=X*X@X/./.K.S.G.Z.D.Z.C.C.a.<.G f r 2 q g Y U 6.0.8.0.7.7.0.0.0.0.0.0.z.z.W.W.W.W.Z.B.m.y.m.m.a.a.t.8.8.e.k.k.9.Y.W.T.+XT.",
"7X7X7X*X%X*X}./.Z.Z.C.M.d.C.Z.G.|.E.l.;.e 4 8 f 6.;.6.7.5.>.7.7.8.0.0.0.0.0.=.h f g g %.,.7.n.C.Z.C.l.l.z.p.z.9.9.9.I.T.uXfXfXyX",
"*X*X*X*X@X%X/.~.H.M.d.a.a.d.H.^.{.}.{.[.D.B.z.8.a.a.n.V.V.D.D.W.W.W.W.a.0.0.h g j j j r G >.B.!.G.R.W.l.z.z.9.9.9.I.T.yXfXfXfXsX",
"<X<X1X:X*X%X X[.S.C.a.y.a.n.C.J.[.@X:X<X<X;X|.E.W.D.D.W.L.V.V.W.W.V.8.8.8.8.8.8.8.=.;.t.d.C.~.}.E.G.H.v.z.9.6.] 9.I.T.yXfXuXuXuX",
"MXMX<X<X,X,XXX{.K.n.t.t.y.d.n.Z.{.%X6X<X>X;XOX|.|.|.E.E.V.V.m.m.V.V.m.m.V.W.V.R.E.E. XOX X}.^.~.v.d.t.w.q.] ] } } I.yXuXuXuXuXuX",
"bX<X1X1X1X<X:X;X[.C.t.3.u.y.i.M.L.@X&X&X|.#X#X;X|.|.$XL.L.L.L.L.V.L.L.V.V.L.L.E.E. X:X:XXX!.N.3.2.,.-.Q ;.6.6.} I.T.uXuXuXuXuXtX",
"mXmX1X1XmXmX1X:X}.Z.d.y.u.t.i.Z.K.@X>X4X4XbX4X;X-X$XE.L.V.m.m.a.m.m.V.V.V.V.V.L.;X<X<X:X[.~.u.2.2.&.J J ! ] ] } I.tXuXuXtXtXtXtX",
"j.k.z.Y.b.H.F..X.X.X!.N.u.1.i.M.A.K. X4XnXNXnXnX-X-X-X-X;X$XE.L.L.L.K.K.K./.}.%XXX:X7X*X!.3.2.1.t.:.I A P ] 9.I.I.T.yXuXuXtXtXtX",
"1 3 6 p L ~ q.f.v.A.~.v.t.2.,.,.s.C..X1XCXVXVXAXnXnXnXnXnXbXnX4X2X4X5X8X4X<X4X<X>X:XXX!.g.2.&.&.J S f A I ] 9.I.T.I.T.tXyXtXtXI.",
"h p d P D D D J r.g.!.~.h.2.Q J &.,.u.A.|.:XbXbXbXbXbXbXbXbXCXbX<XMXMXCXVXMX<X1XXX[.~.3.2.J J F V l V S ] z.Y.Y.I.| | } } tX#.tX",
"t 6 6 a v D D D Q f.~..X~.4.1.2.J F F J 5.l.R.[. X|.;XOX X+X|. X X X X:XXX X~.A.f.w.Q J l l l l V S I 6.p.b.Y.Y.9.| s s / { { #.",
"o o # 6 p v l l J 2.~.~.~.~.3.h.2.Q F C F Q ;.,.5.5.e.s.l.v.v.b.v.v.v.s.u.2.Q J C l l 0 0 l l l Q 2.f.f.b.b.Y.Y.k.' a u s s / { ",
"P K E E ^ J T J X.h.~.~.~.N.3.~.u.e.,.Q F H l w f d A S I L L I ^ S S D l 9 9 9 0 9 l 9 l l l J 2.u.v.v.v.f.v.b.Y.k.] M > o * s ",
"` E ' k.r.r.b.b.~.~./.~.~.h.~.3.g.d.s.t.w.-.F w 9 w q 9 9 8 0 0 0 6 4 0 0 0 0 l l l l l F J 2.1.u.h.N.v.v.l.v.b.b.Y.b.] P t o X ",
"Y.Y.c.j.r.q.q.f.~.~.~./.~.~.h.~.M.g.d.g.d.s.>.Q A A C d p 8 8 6 8 8 0 0 9 9 l C J J J &.,.t.f.d.M.M.N.M.g.C.v.v.b.F.].Y.j.| 3 o ",
"Y.Y.6.L 1 o V 1.~.XXXX~.4.P.~./.G.Z.C.C.C.M.s.w.;.Q I I A Z d A D A A S F I Q :.:.,.:.1.y.d.C.M.M.M.M.Z.J.S.A.C.H.F.].).].].c.~ ",
"a 6 o 1 4 V e.].7X*X/.h.h.~.P.P.J.J.D.Z.G.G.H.l.t.e.5.6.! U I I U I I I U ;.>.1.t.t.s.i.M.C.Z.S.Z.P.P.P.Z.J.M.n.d.v.F.].+XoX+X].",
"o o 3 | Y.OXZXZX7X7X~.N.P./././.L.J.D.D.L.K.G.G.v.v.d.p.5.5.5.5.5.5.5.5.w.e.p.s.C.C.M.C.C.Z.J.J.J.P.P.S.J.Z.C.B.M.A.F.+X+XoXoXoX",
"o s | oXZXZXZXZX].~.~.~.P./././.L.L.Z.J.G.Z.S.H.C.C.v.v.l.d.s.s.s.s.s.s.a.a.d.a.B.C.C.Z.S.A.G.J.S.Z.Z.Z.S.Z.C.A.C.v.R.].+XoX].].",
"o t M I.dXmXZXOX+X!.~.~.~.P.~.^.K.J.G.S.S.A.v.g.s.g.v.C.A.g.g.g.d.y.u.s.t.s.t.u.s.M.M.H.D.S.Z.S.N.C.N.N.A.A.A.A.s.v.~.oXoXoXb.X.",
"X o = | ).oXZXOX7XoX~.~.~.~.~.P.Z.J.G.G.G.A.g.f.s.f.f.A.v.~.C.g.s.u.>.2.2.1.3.s.s.i.M.A.A.A.A.H.A.N.M.g.f.v.v.v.b.).oX]._.).W 7 ",
"X X X 3 W (.oXoXoX].~.f.~.~.~.N.S.A.A.A.~.v.h.f.u.f.f.f.g.g.h.h.3.1.2.2.2.3.u.s.s.g.g.g.v.g.f.f.f.f.g.f.f.f.f.v.].].).x.~ v # . ",
"< o . . # i X.).oX].~.~.~.~.~.~.A.A.A.~.A.g.f.f.f.u.3.t.u.3.3.1.2.2.1.3.u.s.u.h.g.f.f.u.u.s.u.u.f.f.u.f.f.f.b.b.b.x.X.n & X . . "
};
